<svg width="173" height="152" viewBox="0 0 173 152" fill="none" xmlns="http://www.w3.org/2000/svg">
<path d="M74.1362 95.0654L74.0778 95.156L74.1362 95.0654Z" fill="#DAE6DA"/>
<path d="M155.395 39.4764C155.127 40.2174 155.011 41.0085 154.804 41.7695C153.987 44.7838 152.343 47.3156 149.81 49.1711C149 49.763 147.807 50.0089 146.759 50.112C145.212 50.2637 143.767 50.5583 142.361 51.2731C140.428 52.2561 138.4 53.0473 135.983 54.1117C133.684 52.9225 130.776 52.6791 127.419 53.7859C128.064 52.3303 128.512 51.2216 129.026 50.1399C130.073 47.9293 130.76 45.7166 129.618 43.31C129.424 42.9075 129.639 42.3273 129.583 41.8429C129.446 40.7162 129.515 39.4667 129.03 38.4944C128.272 36.9606 128.584 35.7356 129.462 34.4767C131.309 31.8343 132.059 28.9044 131.978 25.7146C131.899 22.7978 130.655 20.3039 129.246 17.8574C128.629 16.7878 127.56 16.5225 126.398 16.6793C125.184 16.842 124.399 17.5797 124.104 18.7262C123.657 20.5043 123.77 22.2417 125.383 23.4124C126.795 24.4398 127.178 25.7527 126.574 27.1886C125.714 29.2245 124.678 31.2072 123.551 33.1164C122.953 34.1193 121.872 34.6644 120.606 34.7462C119.264 34.8307 118.028 35.1642 117.069 36.2207C116.804 36.5095 116.332 36.6916 115.928 36.7893C111.696 37.7917 109.052 40.6868 106.84 44.0889C106.412 44.7538 106.101 45.4954 105.714 46.1841C104.301 48.6832 102.884 51.1754 101.573 53.4766C99.9641 53.3787 98.6167 53.5989 97.5464 53.1476C96.3552 52.6562 95.3966 51.593 94.4086 50.7058C94.1146 50.4455 94.1594 49.8624 93.9068 49.5267C91.4425 46.2775 92.4947 42.9643 93.7492 39.6953C94.5273 37.6553 95.2424 35.6632 94.798 33.4191C94.4413 31.6138 93.6673 30.828 91.9481 30.8029C90.2235 30.771 88.5679 31.851 88.2661 33.288C88.1405 33.9105 88.1163 34.5768 88.1909 35.2122C88.5782 38.4222 87.7583 41.2626 85.9384 43.983C84.2815 46.4698 82.9992 49.2766 83.6852 52.3259C84.2123 54.661 83.8882 56.2687 81.9487 57.9265C80.0022 59.5895 79.6799 62.1954 79.5134 64.6721C79.4798 65.1699 79.5222 65.6649 79.5289 66.3848C78.7436 66.5521 77.9914 66.8041 77.229 66.8441C72.6733 67.1362 68.2653 67.9862 64.054 69.8403C62.3406 70.5907 60.4376 70.9577 58.5865 71.3622C55.1173 72.1263 51.9111 73.3389 49.1256 75.6273C46.1984 78.0342 42.9455 79.9412 39.2406 81.0598C38.2483 81.3621 37.2324 81.9899 36.5225 82.7369C35.4201 83.8806 35.6943 85.1115 37.012 86.0341C38.3994 87.0028 39.9501 87.2545 41.6089 87.0178C47.0248 86.227 52.4745 85.5644 57.8578 84.5897C60.8628 84.0459 63.7605 82.9245 66.7344 82.1846C69.2057 81.5733 71.7237 81.1353 74.2232 80.6454C74.4827 80.5914 74.771 80.7022 75.4662 80.79C74.6311 81.1928 74.1475 81.4168 73.6747 81.6546C71.6046 82.7194 69.5492 83.817 67.4645 84.849C64.865 86.1507 62.304 87.5439 59.6183 88.6363C54.0728 90.8983 48.5953 93.2185 43.5275 96.4581C39.391 99.0903 36.8796 102.851 35.143 107.2C34.6832 108.35 34.5385 109.745 34.6659 110.988C34.8818 113.098 36.557 113.893 38.4822 112.971C39.196 112.627 39.835 112.131 40.4779 111.655C41.2328 111.093 41.9461 110.464 42.6794 109.875C45.9186 107.253 49.6135 105.681 53.7623 105.028C57.9941 104.366 62.2078 103.554 66.569 102.772C63.3536 106.946 59.878 110.747 54.7735 112.773C51.1598 114.207 47.9148 116.295 44.9338 118.775C44.2113 119.378 43.4115 119.897 42.6565 120.458C40.8384 121.815 38.788 122.393 36.5147 122.36C34.6186 122.337 32.6785 122.216 30.8262 122.534C28.7672 122.887 26.705 123.507 24.7856 124.336C22.1976 125.454 21.8566 128.107 24.105 129.872C25.444 130.921 27.1039 131.639 28.7098 132.288C30.4653 133 32.3062 133.493 34.1369 134.015C40.0073 135.681 45.7461 135.557 51.5058 133.297C55.1568 131.868 58.9994 130.853 62.8201 129.911C65.8135 129.167 68.671 128.208 71.4469 126.86C76.9123 124.198 82.0018 120.986 86.7909 117.32C88.908 115.704 90.9017 113.873 92.7041 111.913C98.6661 105.458 102.523 97.8754 104.907 89.4994C105.667 86.8249 106.843 84.2525 107.875 81.5257C111.997 82.2324 115.703 81.0147 119.4 79.5728C123.549 77.9526 127.869 76.9055 132.276 76.1112C135.125 75.5973 137.957 74.6907 140.614 73.5326C144.348 71.8972 145.684 68.6323 145.883 64.4614C147.396 63.3694 148.331 61.529 148.955 59.5067C149.427 57.9735 150.484 56.8861 151.997 56.321C154.37 55.4433 156.13 53.8124 157.343 51.7282C158.865 49.1128 160.253 46.4123 161.485 43.6549C161.957 42.605 162.017 41.2739 161.907 40.0947C161.753 38.3771 160.744 37.6049 158.991 37.4516C157.022 37.2648 155.984 37.8216 155.395 39.4764ZM120.672 36.6511C122.599 36.6281 124.027 35.6556 125.124 34.2633C126.977 31.9129 128.322 29.3 128.77 26.3133C129.021 24.6405 128.638 23.2286 127.194 22.1164C126.673 21.7097 126.245 21.0235 126.095 20.3908C125.987 19.9558 126.427 19.3916 126.625 18.8898C127.061 19.1742 127.68 19.364 127.893 19.7627C130.332 24.2608 130.672 28.7478 127.657 33.1765C127.212 33.833 126.812 34.5201 126.444 35.2172C125.887 36.2873 125.712 37.387 126.308 38.5161C126.49 38.8614 126.579 39.2445 126.713 39.6147C124.395 38.1442 121.245 39.5994 119.074 37.0504C119.721 36.8781 120.198 36.6594 120.672 36.6511ZM103.525 55.4774C103.443 55.3863 103.467 55.2034 103.424 54.9501C103.628 54.5978 103.875 54.1579 104.133 53.7318C105.29 51.8327 106.465 49.942 107.599 48.0276C108.11 47.1563 108.481 46.2052 109.021 45.3562C110.497 42.9953 112.315 40.9689 114.923 39.7489C116.178 39.1699 117.426 39.0363 118.642 39.9151C119.692 40.6676 120.882 40.7312 122.176 40.7273C126.152 40.7214 128.727 44.7656 127.079 48.2886C126.773 48.938 126.395 49.5657 126.124 50.2319C125.535 51.7007 124.815 53.1469 124.49 54.6677C124.09 56.52 123.274 58.0284 121.863 59.2632C119.875 61.0016 118.383 63.1001 117.093 65.3854C115.96 67.3868 114.714 69.3428 113.411 71.2422C112.384 72.724 111.057 73.9507 109.207 74.9691C108.418 71.0204 107.601 67.3782 106.985 63.7053C106.478 60.6849 105.613 57.8484 103.525 55.4774ZM86.0349 49.2697C86.6394 47.592 87.2859 45.8825 88.2167 44.3638C89.7876 41.8104 90.6262 39.1644 90.2916 36.178C90.2171 35.5426 90.1954 34.8891 90.2606 34.2466C90.3501 33.322 91.1369 32.7582 92.0943 32.8667C92.9842 32.9606 93.513 33.5481 93.2898 34.5301C93.0066 35.7773 92.5016 36.9841 92.1315 38.2204C91.5271 40.2823 90.8802 42.3327 90.3929 44.4156C90.0444 45.9211 90.3044 47.4043 91.1417 48.7683C91.4588 49.2856 91.653 49.8742 91.847 50.3202C89.8268 50.9078 88.0234 51.4299 85.7492 52.0785C85.846 51.0494 85.7439 50.0944 86.0349 49.2697ZM66.5222 79.7096C62.2041 81.0296 57.9115 82.3962 53.3329 82.8156C49.578 83.1593 45.789 83.7156 42.2043 85.0725C40.9102 85.5598 39.5172 85.6937 37.6263 84.6676C38.7734 84.0502 39.4436 83.5089 40.2229 83.2912C44.2445 82.1631 47.6978 80.0272 50.8902 77.4741C53.1025 75.7083 55.5437 74.6036 58.3301 73.995C60.9611 73.4163 63.5318 72.5759 66.1107 71.8171C67.995 71.2556 69.8195 70.4759 71.7289 70.0601C74.5665 69.4456 77.4553 69.0668 80.475 68.5558C81.0427 69.5201 81.7076 70.4656 82.1773 71.5042C82.8681 73.0233 83.0893 74.514 81.5192 75.7597C80.9556 76.2092 80.5126 76.7978 80.0317 77.3382C79.2563 78.2009 78.3681 78.4792 77.1357 78.4474C73.5439 78.3159 69.9995 78.6428 66.5222 79.7096ZM61.2569 101.661C58.872 101.998 56.4909 102.354 54.093 102.646C48.5463 103.327 43.7637 105.593 39.6242 109.26C38.8463 109.949 37.937 110.484 36.8242 111.274C36.2343 109.129 36.6571 107.49 37.5992 106.029C39.2861 103.409 41.3436 101.091 43.8816 99.199C47.6493 96.3963 51.8912 94.4531 56.1992 92.6793C61.3204 90.5745 66.5277 88.6788 71.1349 85.5359C71.787 85.0853 72.538 84.7463 73.2864 84.4752C76.2926 83.3923 78.8904 81.7186 81.1207 79.4778C81.4261 79.1693 81.8499 78.9687 82.3004 78.6599C82.3304 80.8888 82.2299 82.9091 82.4175 84.8976C82.5918 86.6984 82.1354 88.2089 80.8333 89.3831C78.6311 91.3609 76.33 93.2271 74.0666 95.1414C74.0612 95.1345 74.0628 95.1223 74.0574 95.1154C72.9435 96.2019 71.9855 97.5436 70.6703 98.2885C67.7714 99.949 64.6312 101.189 61.2569 101.661ZM105.264 81.4746C103.105 87.1209 101.119 92.8449 98.5911 98.3207C95.7904 104.388 91.7549 109.766 86.4724 113.97C82.2331 117.34 77.7656 120.475 72.8427 122.946C68.8512 124.952 64.8783 126.768 60.4131 127.574C57.4858 128.102 54.5618 128.991 51.8309 130.14C48.6864 131.459 45.5298 132.294 42.0997 132.325C36.2253 132.377 30.9557 130.267 25.7182 128.055C24.5697 127.576 24.5709 126.795 25.6226 126.184C26.4144 125.726 27.3109 125.288 28.2 125.196C30.5208 124.962 32.8556 124.959 35.1793 124.801C36.9867 124.682 38.8158 124.591 40.6044 124.277C41.5473 124.111 42.2042 124.25 42.6976 124.963C43.2289 125.725 43.6831 126.544 44.1109 127.373C44.4407 128.035 44.6702 128.739 44.9456 129.431C46.013 126.82 44.5294 125.189 42.8692 123.46C44.1199 122.534 45.2629 121.755 46.3287 120.891C49.1708 118.604 52.1796 116.585 55.5759 115.174C60.0543 113.304 63.6491 110.423 66.7386 106.729C69.3267 103.635 72.2639 100.814 75.1369 97.9542C77.4497 95.6618 79.9187 93.5256 82.271 91.2692C83.9036 89.6904 84.6668 87.7167 84.7231 85.4554C84.8047 82.2303 84.9553 79.0078 85.0757 75.7752C85.1652 73.3569 84.7536 71.055 83.3841 68.9854C83.026 68.4443 82.6888 67.8872 82.385 67.3158C81.1955 65.0768 81.8076 61.3175 83.6041 59.6913C84.2356 63.6387 85.1996 66.2025 86.5974 67.5258C87.3127 66.5439 86.9913 65.4806 86.5464 64.6868C85.115 62.1259 85.6235 59.5436 86.1972 56.9448C86.9957 53.3516 91.3155 51.7777 94.2901 54.0687C95.7755 55.2047 97.0643 56.5886 98.4662 57.8318C98.7494 58.0783 99.1511 58.191 99.8073 58.528C99.7426 57.336 99.686 56.4673 99.6202 55.331C102.071 56.8989 103.479 58.9176 104.056 61.445C104.693 64.2463 104.917 67.1629 105.798 69.8774C107.059 73.8857 106.713 77.6847 105.264 81.4746ZM138.887 71.3496C136.777 72.1368 134.599 72.8223 132.393 73.2873C128.682 74.0703 124.904 74.5848 121.349 76.0074C119.658 76.6862 117.924 77.2543 116.203 77.8674C113.799 78.7351 111.34 79.2053 108.41 78.8908C109.12 78.3298 109.549 77.9501 110.012 77.6429C113.615 75.2719 116.386 72.1821 118.411 68.4278C118.752 67.7954 119.16 67.1898 119.483 66.5489C120.511 64.5281 121.939 62.8305 123.566 61.2449C124.491 60.3453 125.378 59.3541 126.051 58.2615C126.662 57.2602 127.46 56.6545 128.484 56.2075C130.303 55.4208 132.143 55.4425 134.061 55.877C135.409 56.1837 136.259 56.725 136.659 58.1019C137.139 59.7368 138.241 60.9546 139.756 61.8711C141.105 62.6924 142.336 63.7032 143.72 64.6963C142.871 67.6136 141.898 70.2302 138.887 71.3496ZM159.872 40.7487C159.761 41.5901 159.705 42.5003 159.326 43.2272C158.136 45.525 156.862 47.7874 155.512 49.997C154.412 51.7979 152.973 53.2523 150.878 54.0723C148.676 54.9407 147.228 56.5986 146.471 58.8644C146.091 59.9878 145.481 61.0325 144.914 62.2315C143.245 61.1467 141.881 60.4351 140.739 59.4665C139.956 58.7974 139.429 57.8134 138.918 56.8936C138.55 56.2396 138.835 55.5506 139.56 55.3198C142.032 54.5103 144.225 52.8908 146.953 52.8203C148.884 52.7729 150.475 51.9946 151.81 50.6634C153.784 48.6939 155.399 46.5242 156.129 43.7962C156.447 42.6216 156.887 41.4748 157.283 40.3286C157.55 39.5442 158.172 39.4679 158.876 39.5817C159.564 39.6748 159.952 40.0833 159.872 40.7487Z" fill="#01693A" fill-opacity="0.12"/>
<path d="M76.4428 99.7313C78.5147 101.784 80.4243 103.247 81.7642 105.108C83.0663 106.921 83.7987 109.133 84.8641 111.357C85.9426 110.396 86.0633 109.426 85.8047 108.414C84.8589 104.65 82.5963 101.885 79.0584 100.186C78.4292 99.8831 77.6227 99.9237 76.4428 99.7313Z" fill="#DAE6DA"/>
<path d="M72.2685 120.339C73.5457 119.161 73.711 118.091 73.0518 115.801C72.3274 113.286 70.949 111.333 68.1813 110.643C71.2481 113.193 71.2468 116.962 72.2685 120.339Z" fill="#DAE6DA"/>
<path d="M54.9033 123.537C55.4923 124.87 55.9087 126.267 56.5687 128.117C58.1121 124.377 56.1719 120.258 52.7558 119.411C53.5236 120.871 54.2944 122.165 54.9033 123.537Z" fill="#DAE6DA"/>
<path d="M82.0629 99.2134C83.7348 101.141 85.3078 102.958 86.9689 104.872C87.5724 101.756 85.0883 98.8519 82.0629 99.2134Z" fill="#DAE6DA"/>
<path d="M97.8795 65.1523C99.6686 66.8597 101.47 68.5687 103.367 70.3702C103.988 69.4818 103.665 68.5733 103.068 67.7851C101.786 66.1108 100.124 65.0207 97.8795 65.1523Z" fill="#DAE6DA"/>
<path d="M101.416 72.1689C101.684 69.9777 101.038 69.2701 98.4573 68.8882C99.6084 70.1679 100.513 71.1623 101.416 72.1689Z" fill="#DAE6DA"/>
<path d="M114.63 59.2363C113.137 57.0953 111.088 55.6402 108.469 55.0675C108.304 55.028 108.093 55.1874 107.75 55.3052C110.201 57.5982 112.511 59.7557 114.929 62.0075C115.481 61.1165 115.224 60.0923 114.63 59.2363Z" fill="#DAE6DA"/>
<path d="M117.335 42.7197C119.087 44.9058 120.712 46.9458 122.334 48.9668C123.1 46.2001 120.738 43.1807 117.335 42.7197Z" fill="#DAE6DA"/>
<path d="M70.726 90.7776C71.0489 92.0704 71.4602 93.362 72.0489 94.552C72.4172 95.3051 73.2387 95.4399 74.0534 95.0965C73.3746 93.2939 72.6903 91.4844 72.0684 89.8253C70.9528 89.672 70.5923 90.209 70.726 90.7776Z" fill="#DAE6DA"/>
<path d="M74.1366 95.068C74.1087 95.0775 74.0882 95.0815 74.066 95.0983C74.0717 95.1055 74.0757 95.1257 74.0815 95.1329C74.0872 95.1402 74.0855 95.1531 74.0912 95.1603C74.0781 95.1587 74.1366 95.068 74.1366 95.068Z" fill="#DAE6DA"/>
<path d="M68.7732 96.3016C68.119 94.9855 67.4632 93.6816 66.7982 92.3518C65.7386 93.6497 66.5018 95.5311 68.7732 96.3016Z" fill="#DAE6DA"/>
<path d="M66.6156 97.3974C66.0068 96.4094 65.5608 95.6712 64.8432 94.5021C64.5911 96.8131 64.622 96.8666 66.6156 97.3974Z" fill="#DAE6DA"/>
<path d="M127.195 67.8401C127.524 69.0841 127.77 69.326 129.462 69.8C129.199 68.0995 128.881 66.5284 128.734 64.948C128.592 63.4302 128.636 61.8924 128.59 60.1697C127.067 61.6879 126.499 65.2048 127.195 67.8401Z" fill="#DAE6DA"/>
<path d="M124.852 68.0466C125.737 66.925 125.753 66.4188 124.969 63.543C124.119 65.3075 124.294 66.6249 124.852 68.0466Z" fill="#DAE6DA"/>
<path d="M62.5894 79.8703C62.7511 79.7916 62.9128 79.7128 63.0746 79.6341C62.5724 78.5542 62.0703 77.4743 61.4587 76.1698C60.8424 77.8893 61.1244 78.6749 62.5894 79.8703Z" fill="#DAE6DA"/>
</svg>
