<svg width="111" height="108" viewBox="0 0 111 108" fill="none" xmlns="http://www.w3.org/2000/svg">
<g clip-path="url(#clip0_1_1564)">
<path opacity="0.913" fill-rule="evenodd" clip-rule="evenodd" d="M55.9178 7.06641C59.5768 7.11979 63.022 7.99871 66.2538 9.70312C66.9847 10.2226 67.6525 10.8202 68.2577 11.4961C69.2193 14.1614 70.7311 16.4465 72.7928 18.3516C73.7085 19.0207 74.693 19.5832 75.746 20.0391C78.3371 20.7153 80.8684 21.5591 83.3397 22.5703C87.5137 25.4091 90.713 29.1005 92.9374 33.6445C94.7957 37.3912 96.0613 41.3288 96.7342 45.457C97.9824 64.5713 91.4783 80.4269 77.2225 93.0234C69.4963 98.8934 60.7776 101.354 51.0663 100.406C50.0122 99.7433 49.3442 98.7941 49.0624 97.5586C48.8413 96.6537 48.6654 95.7395 48.535 94.8164C48.5956 94.1066 48.8417 93.4738 49.2733 92.918C51.0399 91.2988 52.7976 89.6816 54.5467 88.0664C54.6874 87.9257 54.6874 87.7852 54.5467 87.6445C44.4673 93.1513 33.815 94.5926 22.5897 91.9688C18.0664 90.9303 13.7774 89.313 9.72252 87.1172C8.97991 86.4023 8.62834 85.5233 8.66783 84.4805C8.7552 83.006 9.10677 81.5997 9.72252 80.2617C2.95461 77.8113 -3.05711 74.1549 -8.31264 69.293C-9.12319 68.0434 -9.26381 66.7075 -8.73451 65.2852C-8.18108 63.8544 -7.30218 62.6942 -6.09779 61.8047C-5.16041 61.6005 -4.21119 61.495 -3.25014 61.4883C-1.80905 61.6349 -0.367633 61.6701 1.07408 61.5938C6.54515 60.8498 12.0295 60.217 17.5272 59.6953C28.4858 56.9569 37.5209 51.2264 44.6327 42.5039C46.6214 39.301 48.4494 35.9963 50.1171 32.5898C51.4706 30.3744 52.877 28.1945 54.3358 26.0508C54.6598 24.7326 54.7303 23.3966 54.5467 22.043C54.174 20.3629 53.7169 18.7105 53.1756 17.0859C53.4944 16.0603 53.846 15.0408 54.2303 14.0273C53.5735 11.3823 54.1358 9.06196 55.9178 7.06641ZM59.5038 10.2305C60.5498 10.4032 61.5693 10.6844 62.5624 11.0742C62.9882 11.4302 63.3399 11.8521 63.6171 12.3398C63.7959 15.09 64.0773 17.8321 64.4608 20.5664C65.035 22.3828 65.9139 24.0351 67.0975 25.5234C66.6054 25.8751 66.1131 26.2265 65.621 26.5781C65.0295 26.6752 64.4669 26.5697 63.9335 26.2617C63.361 23.3134 62.2711 20.5712 60.6639 18.0352C60.5937 17.0508 60.5232 16.0664 60.453 15.082C59.4278 13.5863 59.1114 11.9691 59.5038 10.2305ZM56.9725 14.8711C57.3176 15.1345 57.5638 15.4861 57.7108 15.9258C57.781 16.9102 57.8515 17.8945 57.9217 18.8789C59.3443 20.9324 60.2935 23.1825 60.7694 25.6289C59.6529 25.4294 58.528 25.2887 57.3944 25.207C57.5319 22.414 57.1101 19.707 56.1288 17.0859C56.3819 16.3341 56.6633 15.5958 56.9725 14.8711ZM66.6756 14.8711C68.2412 18.2298 70.7022 20.7259 74.0585 22.3594C73.7773 22.8515 73.4959 23.3438 73.2147 23.8359C72.2081 24.0728 71.1887 24.2487 70.1561 24.3633C69.7024 24.3331 69.3508 24.1222 69.1014 23.7305C67.2426 21.0774 66.4339 18.1243 66.6756 14.8711ZM77.8553 23.7305C80.2942 23.9684 82.4036 24.9176 84.1835 26.5781C92.7501 35.4179 95.8789 45.9297 93.5702 58.1133C91.4555 71.8774 85.0219 83.0923 74.2694 91.7578C69.4765 95.2092 64.1326 97.1076 58.2381 97.4531C58.7708 96.2077 59.2629 94.9421 59.7147 93.6562C59.0724 92.2695 58.1934 91.0391 57.078 89.9648C56.9373 89.7539 56.9373 89.543 57.078 89.332C60.3701 85.1259 63.8858 81.1181 67.6249 77.3086C76.8023 65.6319 80.318 52.4131 78.1717 37.6523C77.6096 34.491 76.4142 31.6084 74.5858 29.0039C73.9106 28.258 73.1723 27.59 72.371 27C73.5096 26.8279 74.5993 26.5115 75.6405 26.0508C78.189 26.7266 80.2282 28.1329 81.7577 30.2695C82.9444 32.1857 84.1046 34.1191 85.2381 36.0703C86.7843 36.4217 87.4524 35.8241 87.2421 34.2773C85.8163 30.8853 83.742 27.9674 81.0194 25.5234C79.9793 24.8632 78.9246 24.2656 77.8553 23.7305ZM56.5506 27.7383C57.9108 27.9064 59.2468 28.1876 60.5585 28.582C58.7005 33.6283 57.1185 38.7612 55.8124 43.9805C52.3861 55.1713 45.7416 63.8548 35.8788 70.0312C34.9825 70.494 34.0685 70.9159 33.1366 71.2969C27.9212 73.0586 22.7884 75.0273 17.7381 77.2031C16.3742 77.6406 15.0031 78.0273 13.6249 78.3633C8.04128 76.9247 2.94364 74.4989 -1.66811 71.0859C-1.92359 70.8976 -1.92359 70.7219 -1.66811 70.5586C-1.0269 70.0272 -0.323758 69.6054 0.44127 69.293C2.49133 69.8366 4.56554 70.2584 6.66393 70.5586C8.16086 70.6025 8.65305 69.8994 8.14049 68.4492C8.03502 68.3438 7.92955 68.2383 7.82408 68.1328C5.72165 67.635 3.61227 67.1779 1.49596 66.7617C1.57816 66.0574 1.68363 65.3541 1.81236 64.6523C1.92192 64.438 2.0977 64.2975 2.33971 64.2305C7.52677 63.5078 12.7299 62.9102 17.9491 62.4375C24.3093 61.0917 30.1453 58.5605 35.4569 54.8438C40.9955 51.1334 45.5306 46.4577 49.0624 40.8164C51.1876 36.2106 53.6838 31.8511 56.5506 27.7383ZM68.785 27.7383C72.0919 29.7034 74.1662 32.5863 75.0077 36.3867C77.7889 51.4898 74.2732 64.9194 64.4608 76.6758C51.4962 89.7166 36.2032 93.4784 18.5819 87.9609C18.5117 87.8907 18.4412 87.8202 18.371 87.75C19.1708 86.5373 19.9441 85.3069 20.6913 84.0586C22.8654 83.7224 25.045 83.3357 27.2303 82.8984C28.1876 81.7009 27.9414 80.822 26.4921 80.2617C24.7115 80.6465 22.9186 80.9277 21.1131 81.1055C20.659 80.6216 20.3074 80.0592 20.0585 79.418C24.4816 77.321 29.052 75.5281 33.7694 74.0391C39.4936 71.5494 44.3804 67.9282 48.4296 63.1758C51.7558 59.1281 54.498 54.6984 56.6561 49.8867C58.7064 42.9619 60.8863 36.0714 63.1952 29.2148C63.2825 29.1184 63.388 29.048 63.5116 29.0039C64.4416 29.514 65.4258 29.6897 66.4647 29.5312C67.2526 28.9294 68.0261 28.3316 68.785 27.7383ZM-4.83217 64.2305C-3.70498 64.1955 -2.57997 64.2307 -1.45717 64.3359C-1.22969 64.4781 -1.08906 64.689 -1.03529 64.9688C-1.15213 65.5644 -1.2576 66.162 -1.3517 66.7617C-2.29777 67.5861 -3.28216 68.3594 -4.30482 69.082C-5.16001 68.5435 -5.82798 67.8405 -6.30873 66.9727C-5.97842 65.9597 -5.48624 65.0457 -4.83217 64.2305ZM16.8944 80.2617C17.1045 80.2436 17.2802 80.314 17.4217 80.4727C17.7892 81.0844 18.1056 81.7172 18.371 82.3711C17.5483 83.9314 16.5991 85.408 15.5233 86.8008C14.1041 86.3285 12.7682 85.6957 11.5155 84.9023C11.4383 83.7418 11.6844 82.6521 12.2538 81.6328C13.8122 81.1333 15.3592 80.6764 16.8944 80.2617ZM54.8631 91.6523C55.5173 92.3558 56.1501 93.0941 56.7616 93.8672C56.1526 95.1305 55.6253 96.4313 55.1796 97.7695C54.2487 98.0083 53.2995 98.0435 52.3319 97.875C51.7719 96.9682 51.4202 95.9839 51.2772 94.9219C52.488 93.8286 53.6834 92.7387 54.8631 91.6523Z" fill="#01693A" fill-opacity="0.12"/>
</g>
<defs>
<clipPath id="clip0_1_1564">
<rect width="109.939" height="108" fill="white" transform="translate(0.431824)"/>
</clipPath>
</defs>
</svg>
