<svg width="182" height="98" viewBox="0 0 182 98" fill="none" xmlns="http://www.w3.org/2000/svg">
<path d="M180.672 47.2099C182.139 46.1577 182.064 44.8214 180.5 43.8323C178.583 42.6117 176.462 42.5802 174.288 42.9169C172.745 43.1589 171.203 43.3588 169.479 43.1589C169.832 42.8011 170.153 42.3908 170.56 42.0961C172.906 40.381 175.295 38.7291 177.619 36.9719C178.219 36.5194 178.786 35.8355 179.022 35.1516C179.215 34.5939 179.097 33.689 178.722 33.247C177.737 32.0791 176.409 31.2689 174.77 31.4583C172.338 31.7424 169.875 31.9633 167.508 32.5315C161.488 33.9836 155.49 34.636 149.363 33.2681C147.585 32.8682 145.743 32.7209 143.965 32.3316C141.137 31.7213 138.32 31.6161 135.45 32.058C134.743 32.1633 133.886 31.9738 133.243 31.6477C130.351 30.1851 127.577 28.47 124.631 27.1547C120.326 25.2292 116.512 22.5671 112.614 20.0207C108.361 17.2429 103.82 15.0437 99.1176 13.1182C94.3083 11.1506 89.317 9.88789 84.1649 9.29865C77.0956 8.49897 70.6154 6.15251 64.4673 2.66969C62.5072 1.55434 60.2365 0.933559 58.0728 0.197009C57.3552 -0.0450002 56.4983 -0.0239713 55.7271 0.0496836C52.9636 0.333781 52.1068 1.82793 53.3493 4.22697C53.917 5.3318 54.5917 6.40507 55.3201 7.42571C57.0338 9.86685 58.8119 12.2554 60.5578 14.6754C62.4751 17.3165 64.8743 19.463 67.5521 21.3044C68.891 22.2198 69.7478 23.3983 70.6262 24.7451C72.9183 28.2911 75.4997 31.6582 77.974 35.0884C78.2953 35.5304 78.6809 35.9196 79.2914 36.6351C77.9525 36.9824 76.8493 37.277 75.7354 37.5611C71.5687 38.6449 67.3486 39.171 63.032 39.2236C53.6063 39.3394 44.3091 40.581 35.3975 43.5903C30.2348 45.337 25.3077 47.7886 20.3699 50.1351C15.4963 52.4605 10.5906 54.6385 5.28867 55.8591C4.1533 56.1222 2.99652 56.6062 2.02181 57.227C-0.0775577 58.5738 0.0724208 60.3731 2.24677 61.5516C3.832 62.4144 5.52433 62.5722 7.31308 62.5933C9.60525 62.6143 11.8974 62.8353 14.1789 62.9931C15.2072 63.0668 16.2354 63.3404 17.253 63.3298C22.2336 63.2562 27.0321 64.1821 31.82 65.4237C34.712 66.1708 37.7111 66.4759 41.1065 67.0546C37.6039 68.9802 34.4228 70.7374 31.2309 72.4736C26.6787 74.9463 22.7477 78.2292 18.9025 81.6173C17.9706 82.438 17.1566 83.4376 16.4604 84.4793C14.8537 86.8678 15.3892 89.6667 17.8313 91.2345C25.4898 96.1799 33.9408 98.2528 43.0131 97.0638C49.9538 96.1589 56.6696 94.2018 63.1391 91.5186C72.3935 87.678 81.9906 84.9423 91.9091 83.364C96.0543 82.7011 100.285 82.5643 104.409 81.8067C110.718 80.6387 116.994 79.2183 123.228 77.7031C125.756 77.0928 128.187 76.0406 130.576 75.0094C137.345 72.0947 144.093 69.138 150.788 66.0761C152.791 65.1607 154.644 63.9191 156.497 62.709C157.814 61.8462 159.121 61.4464 160.738 61.6779C163.009 62.004 165.323 62.3407 167.508 61.2149C167.786 61.0781 168.043 60.9097 168.258 60.7835C168.793 59.1104 167.401 58.3423 166.651 57.2165C169.725 54.2808 173.035 51.7976 176.687 49.7247C178.058 48.9671 179.397 48.1253 180.672 47.2099ZM137.099 33.7521C138.749 33.8994 140.398 33.952 142.026 34.2045C145.325 34.7096 148.592 35.3409 151.88 35.8986C155.115 36.4352 158.361 36.551 161.585 35.8881C165.076 35.1726 168.557 34.3729 172.049 33.6679C173.645 33.3417 175.263 33.247 176.816 34.1204C174.534 35.7197 172.435 37.1718 170.357 38.6449C168.557 39.9181 166.779 41.2333 164.958 42.4644C164.594 42.7169 164.037 42.6959 163.277 42.8643C165.023 40.4757 167.604 39.2973 168.654 36.7509C167.454 37.0034 166.351 37.3822 165.408 37.982C164.144 38.7922 162.998 39.7707 161.82 40.6862C160.406 41.791 158.81 42.3908 156.989 42.4013C153.048 42.4223 149.074 42.1382 145.389 43.4114C142.497 40.2337 139.755 37.2244 137.024 34.2256C137.056 34.0783 137.078 33.9204 137.099 33.7521ZM32.8161 62.9826C28.0283 61.7094 23.1976 60.9729 18.2277 61.0886C17.1244 61.1097 15.9891 61.0465 14.9072 60.8361C12.3902 60.331 9.87303 60.2468 7.3238 60.5099C5.82425 60.6677 4.33545 60.5625 2.47172 59.4051C4.0998 58.8264 5.25658 58.3108 6.46693 58.0161C11.0298 56.8903 15.3785 55.2383 19.5987 53.1865C23.8617 51.1031 28.1782 49.1039 32.5483 47.2309C34.9369 46.1998 37.4219 45.2738 39.9497 44.6846C47.9187 42.8432 55.952 41.4122 64.1889 41.4859C65.7741 41.4964 67.3807 41.4122 68.9231 41.1281C72.115 40.5494 75.2962 39.8865 78.4559 39.1184C80.2125 38.687 81.5729 38.8448 83.0403 40.0654C85.1504 41.8226 87.539 43.2641 89.8097 44.8319C92.7981 46.8942 95.7865 48.9461 98.7641 51.0295C99.2568 51.3662 99.6639 51.8081 100.317 52.3868C96.5041 53.1654 92.9588 53.8915 89.4134 54.607C89.1028 54.6701 88.7814 54.6911 88.4708 54.7017C87.1426 54.7648 85.8038 54.7964 84.4756 54.8595C83.608 54.9016 82.7297 55.091 81.8835 55.0068C76.2816 54.4597 70.6476 54.0703 65.0993 53.2286C57.7408 52.1027 50.4251 51.7871 43.0666 53.0708C40.1746 53.5758 37.2719 54.1651 34.3585 54.2913C26.4645 54.607 18.7311 55.7749 11.1691 58.0056C10.8049 58.1109 10.4728 58.3213 10.1301 58.4791C11.2548 58.7948 12.2723 58.7632 13.2791 58.7527C14.2324 58.7422 15.1858 58.658 16.1283 58.7737C20.0593 59.2788 23.9795 59.8891 27.9105 60.3836C32.9447 61.0149 37.9789 61.7094 43.0881 60.9834C44.6519 60.7624 46.2692 60.7729 47.8438 60.9097C50.1359 61.1096 52.4067 61.5305 54.6774 61.8567C54.6774 62.0777 54.6774 62.2881 54.6881 62.5091C52.6102 62.8669 50.543 63.4561 48.4543 63.5192C46.9226 63.5718 45.3695 62.93 43.8271 62.6143C43.2059 62.488 42.5204 61.9409 41.942 62.7301C42.274 63.2036 42.5525 63.6034 42.9488 64.1716C39.3606 64.1716 36.0401 63.8349 32.8161 62.9826ZM80.0198 57.7636C79.5056 57.932 79.0022 58.174 78.4774 58.2476C75.6604 58.6685 72.8327 59.0789 70.0157 59.4472C67.6485 59.7523 66.8987 58.8369 67.4128 56.2063C71.558 56.6167 75.7139 57.0376 79.8805 57.4585C79.9127 57.5637 79.9662 57.6689 80.0198 57.7636ZM65.6134 60.2784C61.511 59.9417 57.5051 59.6786 53.5206 59.2577C52.2781 59.1315 51.1642 57.2585 51.3677 56.0169C51.5069 55.1962 51.8497 54.5439 52.8886 54.5859C57.0767 54.7438 61.254 54.87 65.3242 55.8486C65.4206 57.227 65.4956 58.5212 65.6134 60.2784ZM49.3862 58.3318C45.7444 58.6054 42.274 58.879 38.8036 59.121C36.7899 59.2578 36.4365 58.7632 36.9185 56.5641C40.9137 55.9538 44.8982 54.9963 49.0005 54.8806C49.1398 56.1222 49.2576 57.1954 49.3862 58.3318ZM34.2193 59.0578C30.5454 58.7211 27.0643 58.3949 23.5725 58.0793C27.15 56.9429 31.4451 56.6377 34.155 57.0902C34.1657 57.6584 34.1871 58.2476 34.2193 59.0578ZM149.824 64.0874C142.208 67.444 134.582 70.7585 126.956 74.0835C126.517 74.2729 126.067 74.4202 125.606 74.5569C115.72 77.5557 105.619 79.6497 95.3366 80.6282C86.3286 81.4911 77.6955 83.7428 69.2123 86.6258C62.4644 88.9197 55.9842 91.8974 48.9684 93.4863C43.313 94.77 37.754 95.275 31.9914 94.328C27.5142 93.5915 23.5082 91.7922 19.4808 89.9508C18.4954 89.4984 17.51 88.9407 17.2101 87.8148C19.2666 84.0269 20.6805 82.8905 26.7644 78.408C34.6906 72.5683 43.5165 68.2858 53.0065 65.3711C59.2511 63.4561 65.6777 62.4249 72.1472 61.7515C77.5027 61.1938 82.5262 59.6155 87.5818 57.9635C91.4056 56.7114 95.3901 55.9328 99.2782 54.8279C102.01 54.0493 104.366 54.5123 106.605 56.2169C107.526 56.9218 108.715 57.2796 109.775 57.8162C110.204 58.0267 110.611 58.2897 111.028 58.5212C106.562 59.2578 102.224 59.6787 97.8751 59.9101C92.8302 60.1837 87.9781 61.1517 83.2653 62.9616C78.9808 64.603 74.6428 66.1498 70.337 67.7597C69.8764 67.928 69.448 68.2121 68.5375 68.6856C70.9582 69.1801 72.8219 69.2012 74.6428 68.5804C76.5172 67.9385 78.3917 67.2756 80.2018 66.497C86.3072 63.8875 92.5839 62.1619 99.3104 62.0672C104.398 62.004 109.432 61.2359 114.37 60.0048C116.523 59.4682 118.365 60.11 120.647 61.3306C119.672 61.6673 119.244 61.8883 118.783 61.9514C115.088 62.446 111.403 63.0352 107.686 63.3509C98.8713 64.0979 90.1525 65.2869 81.8514 68.4225C75.2748 70.9058 68.484 72.2631 61.4789 72.9155C53.9598 73.6205 46.537 74.8726 39.5962 78.0293C39.1035 78.2502 38.5358 78.3554 37.9896 78.4501C32.5162 79.4603 27.6427 81.9435 22.7906 84.4372C21.7837 84.9528 20.9161 85.8893 20.2413 86.8152C19.4487 87.8885 19.8986 88.9197 21.1839 89.4142C21.698 89.6141 22.2657 89.6667 22.8013 89.7825C29.3029 91.1083 35.7724 90.7926 42.1669 89.2564C46.944 88.1095 51.6354 86.6364 56.3697 85.3316C60.1936 84.2794 63.9639 82.9852 67.852 82.3012C72.747 81.449 77.6419 80.6072 82.6975 80.5019C91.6199 80.302 100.242 77.8399 108.908 75.9143C116.791 74.1676 123.978 70.6217 131.197 67.1493C134.464 65.5816 137.87 64.1085 141.373 63.2877C145.1 62.4039 149.031 62.3302 152.866 61.9093C152.93 62.0672 152.984 62.225 153.048 62.3723C151.987 62.9405 150.938 63.5929 149.824 64.0874ZM91.4806 77.1559C89.9275 77.4084 88.7707 77.6715 87.5925 77.7662C83.7258 78.0819 79.8591 78.3554 75.9924 78.5869C75.489 78.6185 74.8249 78.4606 74.4822 78.1345C73.2825 76.9875 72.2543 75.7039 72.5328 73.9467C77.9204 72.2105 83.201 70.5164 88.76 68.7277C88.1495 72.1053 89.5205 74.5254 91.4806 77.1559ZM91.7162 67.9911C96.2684 67.0862 100.906 66.3181 105.898 65.9077C105.03 69.0644 106.787 71.1583 108.49 73.6415C104.13 74.5885 100.124 75.4619 96.1185 76.3141C94.694 76.6193 93.6764 75.746 92.7767 74.9042C90.8701 73.1259 90.5166 70.6111 91.7162 67.9911ZM108.608 65.7604C109.218 65.6973 109.85 65.6657 110.471 65.571C114.531 64.9397 118.708 64.7503 122.511 63.1194C123.989 62.4881 124.899 62.7511 125.81 63.7612C126.431 64.4452 126.956 65.2028 127.566 65.9709C127.223 66.3707 127.148 66.5391 127.02 66.5917C122.361 68.5067 117.691 70.4217 113.01 72.3157C112.656 72.463 112.228 72.5472 111.853 72.4946C109.207 72.1474 107.344 68.2858 108.608 65.7604ZM71.9758 78.9867C67.2308 80.1021 62.4858 81.2069 57.6872 82.3328C56.3055 81.2385 54.988 80.0285 55.0416 77.9872C55.0737 76.493 55.3629 75.9985 56.8839 75.8091C61.4254 75.2619 65.9669 74.799 70.3477 74.3255C70.9368 75.9774 71.4723 77.5347 71.9758 78.9867ZM54.7417 83.4166C51.6462 84.332 48.39 85.2685 45.1553 86.2681C43.5486 86.7626 42.3597 86.2049 41.5028 84.9423C40.9779 84.1742 40.5495 83.3114 40.2818 82.438C39.8426 80.9755 40.4317 79.7023 41.9312 79.2814C45.4873 78.2818 49.0969 77.4611 52.3638 76.6509C53.1778 78.9868 53.9062 81.0596 54.7417 83.4166ZM39.939 87.4466C37.4647 87.6991 35.0333 87.9727 32.6019 88.1936C31.8949 88.2568 31.1666 88.2778 30.4597 88.2147C29.5278 88.1305 28.2103 86.8573 28.0497 85.9103C27.9211 85.1001 28.0283 84.2689 28.8852 83.9006C31.7557 82.68 34.5299 81.1333 37.4112 80.8492C38.2788 83.0799 39.0393 85.0791 39.939 87.4466ZM27.4927 88.2883C25.6826 87.6465 24.1294 88.0568 22.6406 86.9941C24.0009 86.2786 25.147 85.6788 26.3681 85.037C26.7537 86.1313 27.0215 86.931 27.4927 88.2883ZM128.305 63.2351C129.301 63.3404 129.923 63.3719 130.522 63.4666C131.09 63.5508 131.636 63.6981 132.515 63.877C131.326 64.4241 130.501 64.8134 129.473 65.2869C129.109 64.6556 128.777 64.0664 128.305 63.2351ZM164.969 59.6892C163.213 59.5313 161.445 59.363 159.689 59.2051C159.678 59.2051 159.657 59.2051 159.646 59.2051C159.507 59.2157 159.378 59.2262 159.239 59.2472C153.948 59.6576 148.613 59.8049 143.376 60.552C137.088 61.4569 130.897 61.762 124.728 60.0469C121.375 59.1104 118.065 58.0477 114.713 57.0902C109.593 55.6276 105.191 52.8919 100.971 49.7668C97.618 47.2836 94.2119 44.8109 90.6451 42.6433C83.865 38.5186 78.563 33.0471 74.1072 26.1867C76.3459 27.544 77.5348 29.7221 80.0091 30.2903C80.2768 28.6488 79.2914 27.6177 78.3274 26.797C75.8103 24.661 73.2183 22.5986 70.5405 20.6625C67.7128 18.6213 64.96 16.5589 62.7321 13.8442C60.6006 11.2347 58.362 8.71994 56.1769 6.15254C55.2344 5.0372 54.2168 3.94286 54.1954 2.40663C55.3736 1.56486 56.5197 1.76479 57.5265 2.15411C59.5938 2.93275 61.6931 3.7114 63.5997 4.79518C69.5765 8.18331 75.8211 10.7507 82.7297 11.6135C89.8847 12.5079 96.7184 14.4861 103.145 17.7269C105.041 18.6844 106.862 19.7787 108.64 20.9256C113.481 24.0402 118.065 27.5861 123.464 29.8168C130.587 32.7525 136.446 37.2349 141.234 43.1799C145.197 48.1043 150.252 51.6713 156.154 54.1124C158.339 55.0173 160.417 56.1853 162.506 57.3217C163.438 57.8267 164.262 58.5317 165.141 59.142C165.087 59.3209 165.023 59.5103 164.969 59.6892ZM159.731 53.0392C161.017 52.5762 162.141 52.1658 163.48 51.6818C161.777 53.8704 161.52 53.9651 159.731 53.0392ZM166.222 54.2597C165.537 54.7648 164.959 55.6066 163.513 55.1962C164.241 54.4597 164.787 53.9441 165.28 53.3969C166.072 52.5236 167.015 51.7344 167.551 50.7243C168.054 49.7773 168.686 49.3354 169.682 49.125C170.614 48.9356 171.524 48.662 172.435 48.3779C173.42 48.0727 174.416 47.7465 175.08 46.1261C173.731 46.2734 172.735 46.284 171.781 46.4944C168.129 47.3046 164.691 48.683 161.21 50.0193C158.36 51.1136 155.222 51.6713 152.319 49.8825C150.981 49.0513 149.706 48.1043 148.474 47.1362C147.896 46.6838 147.489 46.042 146.696 45.1476C148.003 44.9792 148.838 44.7583 149.674 44.7793C154.43 44.874 159.185 44.9161 163.92 45.1896C167.626 45.4001 171.31 46.0946 175.027 45.1371C176.237 44.8319 177.587 44.7267 179.161 45.4632C177.169 46.6101 175.391 47.4835 173.784 48.5988C171.203 50.4086 168.75 52.3763 166.222 54.2597Z" fill="#01693A" fill-opacity="0.12"/>
<path d="M160.31 58.4896C159.978 58.0687 159.614 57.5952 159.142 57.3637C157.247 56.3956 155.394 55.2172 153.359 54.6595C149.695 53.6388 145.957 52.8076 142.198 52.271C137.399 51.587 132.997 50.0087 128.766 47.7359C125.778 46.126 122.693 44.6845 119.587 43.2956C116.084 41.7383 112.817 39.8443 110.064 37.1822C102.888 30.2376 94.4156 25.2396 85.279 21.2622C81.8943 19.7891 78.8631 17.8215 76.1104 15.4435C71.3546 11.3399 66.1598 7.96224 60.2794 5.60528C59.2833 5.20544 58.3407 4.68987 57.0768 4.07959C57.2482 4.65831 57.2589 4.97395 57.4088 5.17387C58.5228 6.58384 59.7224 7.94119 60.7828 9.38272C62.0467 11.1084 63.6533 12.4447 65.2814 13.8336C69.4802 17.4006 73.4861 21.1886 77.5991 24.8503C80.7161 27.6281 83.7794 30.4586 87.0356 33.0681C93.1195 37.9503 99.2783 42.7484 105.512 47.4623C109.025 50.1244 112.571 52.8287 116.416 54.9752C122.018 58.1002 128.155 59.7417 134.689 59.3208C140.066 58.9736 145.432 58.4685 150.799 58.1107C152.609 57.9845 154.44 57.9424 156.229 58.1213C157.257 58.2265 158.232 58.8683 159.228 59.2577C159.367 59.2366 159.496 59.2261 159.635 59.2156C159.646 59.2156 159.667 59.2156 159.678 59.2156C159.903 58.9525 160.353 58.5422 160.31 58.4896ZM73.636 17.7689C70.2942 15.1594 66.9631 12.5394 63.6319 9.91936C67.5094 11.887 71.2475 14.0125 74.1502 17.3059C73.8503 17.5689 73.6575 17.7794 73.636 17.7689ZM82.6869 26.5864C80.2769 24.2084 78.0062 21.9883 75.7783 19.726C75.6497 19.5997 75.8532 19.1578 75.9175 18.7369C78.6917 20.3994 81.3694 21.9988 84.0793 23.6192C83.683 24.4609 83.2546 25.3659 82.6869 26.5864ZM86.5322 29.9009C85.1398 28.9223 85.022 27.5966 85.279 26.1761C85.5254 24.8082 86.4251 24.3347 87.689 24.9765C90.2811 26.2918 92.7982 27.7334 95.2403 29.0697C94.0835 31.0057 93.1516 32.563 92.2091 34.1308C90.3239 32.7208 88.4709 31.2582 86.5322 29.9009ZM104.248 43.3903C101.538 41.3806 98.4965 39.3182 95.7009 36.9613C93.9228 35.4671 95.2082 31.6265 97.511 31.0268C97.8538 30.9426 98.3465 30.9636 98.6142 31.153C101.645 33.2364 104.72 35.2672 106.969 37.7294C106.005 39.7391 105.148 41.5068 104.248 43.3903ZM119.265 53.7651C115.27 51.7133 111.553 49.3879 108.158 46.6101C106.733 45.4421 106.701 42.1697 107.922 40.7808C108.565 40.0442 109.229 39.8128 110.161 40.4967C111.81 41.6962 113.513 42.8326 115.27 43.8743C116.673 44.7055 118.194 45.3474 119.704 46.0945C118.955 48.6303 118.001 51.0925 119.265 53.7651ZM134.475 56.9112C131.337 57.1638 128.295 56.8797 125.306 55.9222C121.236 54.6069 119.469 50.2928 121.675 46.6416C124.31 48.0516 126.902 49.5668 129.612 50.8399C132.311 52.1131 135.128 53.1338 138.063 54.3438C137.453 56.0379 136.285 56.7639 134.475 56.9112ZM139.616 56.2694C139.809 55.5223 139.938 55.0172 140.066 54.5227C142.84 54.5858 144.115 54.8384 145.957 55.7433C143.719 55.9327 141.748 56.0905 139.616 56.2694Z" fill="#01693A" fill-opacity="0.12"/>
<path d="M135.246 40.1284C135.407 42.5275 135.932 44.4846 136.574 46.5259C138.149 46.1155 138.224 45.1264 138.085 44.1163C137.86 42.517 137.517 40.9491 135.246 40.1284Z" fill="#01693A" fill-opacity="0.12"/>
<path d="M131.733 39.0449C132.258 40.6548 132.59 41.707 132.975 42.8855C134.335 41.3808 134.068 40.4233 131.733 39.0449Z" fill="#01693A" fill-opacity="0.12"/>
</svg>
