<svg width="141" height="104" viewBox="0 0 141 104" fill="none" xmlns="http://www.w3.org/2000/svg">
<path d="M105.666 5.21006C104.462 6.98771 102.856 8.12639 100.628 8.26565C98.0477 8.42949 95.4672 8.75716 92.8868 8.81451C86.6937 8.94558 80.7627 10.1088 75.0202 12.5173C69.7446 14.7209 65.3128 17.9731 61.7902 22.4295C59.816 24.928 58.0629 27.6068 56.1296 30.3265C53.7703 29.7858 51.1899 29.1387 48.5849 28.6144C46.1601 28.1311 44.0056 27.1153 41.8511 25.9192C37.7797 23.6583 35.1829 19.7917 31.7095 16.8917C30.3824 15.7776 29.4895 15.4336 28.0231 16.3838C26.7124 17.2358 25.8277 18.4154 25.6147 19.9883C25.4591 21.1515 25.4754 22.3476 25.2543 23.4944C25.0249 24.7068 24.8938 26.0913 24.2139 27.0415C22.2232 29.8432 20.1671 32.6448 17.7996 35.127C15.3748 37.6747 12.4749 39.7636 9.92717 42.1966C3.18522 48.6518 0.309863 56.9339 0.0149535 65.9368C-0.230804 73.3751 2.56264 80.076 7.65802 85.6547C12.0489 90.4634 17.3245 94.1088 23.0506 97.1398C28.1132 99.8186 33.4872 101.285 39.2133 101.711C41.6135 101.891 44.1284 102.243 46.3157 103.161C50.3953 104.865 54.3602 103.472 58.3742 103.317C58.8002 103.3 59.2098 102.907 59.6194 102.678C60.2338 102.334 60.8154 101.899 61.4707 101.662C62.7978 101.178 63.7235 100.294 64.4444 99.1141C65.5176 97.3446 66.902 95.9274 68.7779 94.9362C70.0149 94.2808 71.1044 93.3388 72.194 92.4459C75.3151 89.9146 77.9693 86.9491 80.3204 83.6641C87.177 87.6536 94.6644 88.653 102.226 88.2024C112.105 87.6044 120.977 83.8853 128.743 77.7168C133.871 73.6454 137.361 68.4599 139.188 62.1357C140.171 58.7443 140.138 55.3119 140.105 51.8549C140.048 44.3756 137.975 37.4617 134.231 31.0146C132.085 27.3201 129.48 23.9859 126.326 21.1188C122.714 17.8256 120.87 13.9099 121.698 8.95377C121.812 8.25746 121.927 7.56114 122.066 6.87302C122.64 3.94851 121.223 1.84318 119.273 0H109.123C107.968 1.7285 106.838 3.48157 105.666 5.21006ZM29.1536 17.0556C29.809 16.7443 30.4725 16.7279 30.6445 17.5225C30.7019 17.801 30.1366 18.3745 29.7352 18.5465C28.8751 18.9233 27.933 19.1281 26.9336 19.4312C27.3514 18.268 28.1214 17.5471 29.1536 17.0556ZM62.593 98.7946C60.3648 100.171 58.3414 102.03 55.4251 101.809C54.737 101.76 53.9997 101.867 53.328 102.055C51.1735 102.661 49.0846 102.366 47.1349 101.441C44.3332 100.105 41.4169 99.4418 38.345 99.0485C32.9301 98.3604 27.7938 96.6893 23.1489 93.691C20.9043 92.2492 18.6024 90.8894 16.2841 89.5623C13.2449 87.8256 10.7382 85.4581 8.35432 82.9514C5.72472 80.1989 4.48774 76.7174 3.43098 73.1621C3.11969 72.1135 2.93946 71.0158 2.64455 69.9672C2.01378 67.739 1.76802 65.5108 2.34964 63.2335C3.15245 60.1205 3.75047 56.9502 4.72531 53.8947C5.9459 50.0854 8.41167 47.0053 11.0822 44.0889C11.3116 43.835 11.6147 43.6548 12.1062 43.6548C11.4427 44.5886 10.7955 45.5471 10.1074 46.4646C7.40406 50.0445 5.83121 54.1568 4.82361 58.4494C3.48013 64.1755 4.21741 69.746 7.19927 74.825C9.33736 78.4704 11.7785 81.952 14.2689 85.3762C16.3824 88.2844 19.2578 90.2914 22.6001 91.7168C24.8283 92.667 26.9336 93.9204 29.0717 95.0755C31.6603 96.4763 34.3555 97.3692 37.3619 97.3856C40.311 97.3938 43.1208 98.1065 45.5293 99.9578C46.6516 100.818 47.9295 101.08 49.3139 100.802C50.6328 100.539 51.8944 100.351 53.2379 100.875C53.8031 101.097 54.6141 100.818 55.2695 100.613C57.8417 99.835 60.3976 98.9994 63.0272 98.1638C62.8961 98.3604 62.806 98.6717 62.593 98.7946ZM73.6849 89.4804C72.2677 90.7255 70.8997 92.0608 69.335 93.0766C67.8359 94.0433 66.0828 94.5839 64.4854 95.4031C60.414 97.4921 60.4304 97.5085 59.6358 97.2299C59.0951 97.7378 58.5626 98.2539 57.596 99.1714C57.8827 97.7296 58.0547 96.8695 58.2267 96.0093C58.1121 95.9602 57.9974 95.9028 57.8827 95.8537C57.596 96.4107 57.3093 96.9678 57.0225 97.5248C56.1214 99.2697 54.9172 99.6957 52.9757 99.3271C51.8616 99.1141 50.6492 99.1632 49.5187 99.3271C46.971 99.7039 44.9313 98.8929 43.2273 97.0415C42.9652 97.0088 42.7031 96.9678 42.4409 96.935C37.665 96.7712 33.1267 95.8127 28.9324 93.3715C27.0401 92.2738 25.0413 91.3154 23.0179 90.4798C20.036 89.251 17.431 87.4897 15.5632 84.9093C12.909 81.2229 10.2549 77.5038 8.03484 73.5471C4.95468 68.0585 4.85637 62.1767 6.76509 56.2212C8.24783 51.6009 10.6399 47.505 13.5316 43.6302C15.6451 40.804 17.6931 37.9696 20.3473 35.5775C21.7153 34.3487 22.6574 32.653 24.132 31.1785C24.0582 31.8666 24.0828 32.5875 23.8944 33.251C23.1407 35.8888 22.3625 38.5266 21.5187 41.1316C17.7914 52.6495 17.8733 64.1346 21.8792 75.5623C24.0091 81.6407 28.3098 86.0725 33.184 90.0292C33.397 90.2013 33.7247 90.2177 34.0032 90.2996C33.9787 90.2832 33.9623 90.2586 33.9377 90.234C33.9541 90.2422 33.9787 90.2504 33.995 90.2668C33.3643 89.5131 32.8072 88.6776 32.0781 88.0386C24.5661 81.395 20.9699 72.7689 20.5111 63.0614C20.1671 55.8116 20.8142 48.4962 23.321 41.4675C24.6317 37.7975 25.4181 33.9228 26.2209 30.0971C26.696 27.8198 26.6633 25.4359 26.9991 23.1176C27.2777 21.2335 27.933 19.6115 30.3414 19.6197C30.8821 19.6197 31.4146 19.0872 32.2338 18.653C32.8728 19.3329 33.7247 19.9555 34.1917 20.7911C35.7235 23.5354 37.9108 25.5342 40.4503 27.3692C43.17 29.3435 45.5129 31.8174 48.0688 34.0211C49.3139 35.0942 50.6328 36.0854 51.9763 37.0275C54.5486 38.8297 57.17 40.5582 59.7586 42.3277C63.4122 44.8344 66.1074 48.2013 68.0816 52.0924C71.4567 58.7443 73.8078 65.691 73.431 73.3095C73.2098 77.897 72.4151 82.3452 70.531 86.5722C70.0968 87.5389 69.7036 88.5219 69.5398 89.5951C71.0553 87.2276 72.6363 84.8929 73.349 82.165C75.2332 74.9315 75.1758 67.6653 72.9968 60.5383C71.9728 57.1796 70.4737 53.9438 68.9172 50.7817C65.9927 44.859 60.971 40.9432 55.5152 37.5436C52.2467 35.5038 49.1665 33.2592 46.0126 30.1709C47.0366 30.4494 47.651 30.4821 48.1179 30.7525C53.0658 33.6197 58.4397 35.8397 62.8798 39.5015C66.263 42.2867 69.507 45.3013 72.4561 48.5371C78.1003 54.7466 79.5012 62.3733 78.9851 70.4833C78.682 75.2592 77.3467 79.7402 74.9383 83.8935C74.7171 84.2703 74.6024 84.7045 74.4467 85.1059C74.586 85.1796 74.7171 85.2615 74.8563 85.3353C75.6264 84.1065 76.5275 82.9432 77.1501 81.6489C79.1653 77.3973 79.9681 72.859 80.0746 68.1732C80.2958 58.4494 76.5029 50.5769 69.4579 43.9579C64.8212 39.5998 59.816 35.938 54.0734 33.251C53.1641 32.825 52.3122 32.268 51.1489 31.6126C60.2665 32.6776 70.3426 36.7899 77.0108 47.7507C85.0225 60.9151 83.9002 74.014 75.3151 86.7279C75.8639 86.2691 76.421 85.8022 76.9453 85.368C76.462 86.5723 75.397 87.9731 73.6849 89.4804ZM73.8651 41.959C75.5527 42.9666 76.7978 44.433 77.8382 46.014C83.2121 54.1568 85.3994 63.0123 83.4169 72.6787C83.1138 74.1697 82.9254 75.8326 81.5737 76.9222C81.754 76.0374 81.9096 75.1445 82.139 74.2762C84.9488 63.7495 82.5977 54.2633 76.3555 45.5635C75.5117 44.3838 74.5696 43.2697 73.8651 41.959ZM80.0828 79.9696C80.5333 79.0766 80.9757 78.1755 81.4263 77.2826C81.1805 78.2493 80.9266 79.2159 80.6808 80.1825C80.4842 80.1088 80.2876 80.0351 80.0828 79.9696ZM113.784 0.417788C114.898 0.729081 116.029 0.974839 117.168 1.17964C118.863 1.48274 119.183 2.91632 120.125 4.62844C118.314 4.00585 117.241 2.38385 116.013 3.80924C114.89 3.12112 114.014 2.58046 113.137 2.04798C112.998 2.20363 112.859 2.36747 112.719 2.52311C113.391 3.29315 114.006 4.12054 114.759 4.80047C115.128 5.13634 115.734 5.36571 116.242 5.38209C117.52 5.43944 118.814 5.34933 120.403 5.30837C120.281 6.24225 120.125 6.97952 120.109 7.71679C120.035 10.0515 119.74 12.4353 120.043 14.7291C120.494 18.1779 122.935 20.5781 125.343 22.8473C128.333 25.6735 130.938 28.7782 132.904 32.4072C137.508 40.9105 139.335 49.9789 137.729 59.4979C136.435 67.1656 132.257 73.2767 125.958 77.8888C118.88 83.0743 110.942 86.1954 102.226 86.7197C94.9839 87.1539 87.816 86.2036 80.8856 82.7794C84.3426 76.1112 86.8166 69.2299 85.7434 61.5951C84.6948 54.1896 81.8195 47.5869 76.9535 41.7215C77.5515 39.78 78.8458 38.2153 80.3531 36.8555C84.2689 33.3247 88.4959 30.2282 93.1325 27.6559C98.1624 24.8707 102.865 21.5939 106.502 17.0146C106.944 16.4658 107.354 15.8923 107.755 15.3025C107.87 15.1305 107.886 14.8847 108.107 14.0983C107.108 15.1632 106.485 15.8596 105.822 16.5149C105.093 17.2358 104.396 17.9895 103.577 18.5957C99.8499 21.3236 96.2373 24.2645 92.2887 26.6401C86.2431 30.2773 80.5989 34.2914 76.2736 39.9438C76.1343 40.124 75.9213 40.2387 75.7247 40.4026C73.4228 38.6249 71.1372 36.8718 68.6878 34.9795C69.1548 32.9315 71.4157 32.268 72.366 30.5231C70.5556 31.5471 68.8271 32.6448 67.6884 34.66C65.6322 33.7507 63.658 32.8742 61.5527 31.9403C63.273 28.1065 65.8043 25.1 69.4415 22.5606C68.0161 22.4377 67.3607 23.1749 66.7791 23.7566C64.5673 25.9848 62.4374 28.2867 60.3075 30.5886C59.8651 31.0638 59.5457 31.6372 58.792 31.1457C61.9623 21.8397 73.8078 12.2633 88.84 11.2967C84.9324 12.8695 80.9839 14.3441 77.6006 17.1211C78.1003 16.9655 78.6165 16.8508 79.0998 16.646C81.8441 15.4827 84.5474 14.1966 87.3326 13.1562C88.6188 12.6811 90.0687 12.4927 91.4532 12.4681C95.7785 12.3944 99.8253 11.2967 103.708 9.47806C105.388 8.69163 106.682 7.44646 107.608 5.83265C108.345 4.53833 109.066 3.22762 109.819 1.94149C110.745 0.393212 112.039 -0.0655354 113.784 0.417788Z" fill="#DAE6DA"/>
<path d="M45.7668 97.4182C45.8487 97.2216 45.9224 97.025 45.9961 96.8284C44.284 96.6482 43.26 95.5177 42.0313 94.633C39.5737 92.8635 36.6901 91.6839 33.9868 90.2667C33.9704 90.2585 33.9458 90.2503 33.9294 90.2339C33.954 90.2503 33.9704 90.2749 33.995 90.2994C34.5766 90.8401 35.1009 91.4709 35.7644 91.8887C37.3291 92.8799 38.9675 93.7646 40.5731 94.6903C35.7153 93.4451 30.7592 92.4867 26.7861 89.1362C25.5327 88.0794 24.3285 86.949 22.985 86.0151C17.3162 82.0911 14.7276 76.3076 13.2694 69.9016C11.1149 60.4317 13.3349 51.7237 18.0944 43.4826C19.4052 41.2134 20.4947 38.8132 21.6907 36.4785C21.1992 36.4949 20.9534 36.6505 20.806 36.8799C20.2407 37.7319 19.7165 38.6002 19.1676 39.4604C18.5368 40.4516 17.947 41.4756 17.2589 42.4177C13.5152 47.5376 11.1968 53.1819 10.8118 59.5634C10.5169 64.544 11.1395 69.3527 12.5895 74.1777C14.4572 80.4036 18.1928 84.9337 23.5257 88.3498C25.3033 89.4885 27.1138 90.5944 28.9487 91.6429C30.2267 92.372 31.5374 93.0929 32.9136 93.609C36.0593 94.7886 39.2542 95.8372 42.4327 96.9349C42.6948 96.9677 42.9569 97.0086 43.2191 97.0414C44.071 97.1643 44.923 97.2953 45.7668 97.4182Z" fill="#DAE6DA"/>
<path d="M104.192 10.3626C101.931 11.1982 99.5714 11.788 97.2613 12.5007C96.2619 12.8038 95.2788 13.1479 94.2794 13.4674C94.3204 13.6312 94.3695 13.7869 94.4105 13.9507C96.778 13.5165 99.1454 13.0578 101.521 12.6564C106.821 11.7553 109.049 7.90507 110.688 3.46505C110.532 3.37494 110.377 3.28483 110.229 3.18652C109.549 4.31701 108.804 5.40653 108.214 6.58617C107.321 8.36382 106.002 9.6991 104.192 10.3626Z" fill="#DAE6DA"/>
<path d="M66.5088 59.2523C62.6914 51.8141 56.7276 46.0388 51.2063 39.9276C49.7399 38.2974 48.1671 36.7328 46.4796 35.3401C42.3508 31.9323 38.3859 28.3852 35.0272 24.1909C34.7815 23.8878 34.4866 23.6175 34.1671 23.3963C33.0038 22.5853 32.4714 22.8065 32.0536 24.2565C31.9717 24.5432 31.9389 24.8463 31.8979 25.0429C31.1852 25.305 30.6036 25.5344 30.0138 25.7474C28.5966 26.2553 28.015 27.1974 27.9003 28.7538C27.4006 35.3237 26.6633 41.8773 26.1963 48.4472C25.6475 56.1312 25.328 63.8398 26.8927 71.4419C28.5065 79.298 31.9225 86.0973 39.0413 90.5127C39.754 90.9551 40.2619 91.7169 40.909 92.274C41.3268 92.6262 41.8347 92.8802 42.3017 93.1751C42.3918 93.0522 42.4737 92.9212 42.5638 92.7983C41.2531 91.4794 40.0898 89.9721 38.6153 88.8743C32.9711 84.6637 29.809 78.8966 28.3263 72.2284C26.3192 63.2418 26.7616 54.1324 27.6054 45.0394C28.0641 40.0423 29.0144 35.0862 28.744 30.0318C28.7195 29.5648 28.7277 29.0815 28.8096 28.6227C28.9898 27.6889 30.2595 26.7796 31.4392 26.5993C32.4304 26.4437 32.8646 27.0581 33.2168 27.8036C33.9541 29.36 34.675 30.9329 35.3959 32.4893C35.7236 33.1856 36.0512 33.8902 36.3789 34.5865C36.6902 33.9639 36.7066 33.4724 36.5182 33.071C35.6416 31.1541 34.7569 29.2371 33.7739 27.3694C33.2004 26.2799 32.5942 25.2559 33.5363 23.7322C34.077 24.1008 34.3801 24.6497 34.7159 25.1739C36.8376 28.4343 39.6311 31.0803 42.5638 33.5707C50.2069 40.0505 56.8997 47.4314 62.7979 55.5004C69.2531 64.3395 71.4977 74.1535 68.9254 84.9258C68.7288 85.7368 68.6141 86.5642 68.4667 87.3916C69.7528 86.1464 69.9986 84.5244 70.2771 82.968C71.8008 74.6368 70.3508 66.7234 66.5088 59.2523Z" fill="#DAE6DA"/>
<path d="M50.9852 49.0449C49.4369 47.3819 47.9705 45.6288 46.3485 44.0396C45.0051 42.7207 44.2186 42.7207 42.5639 43.6546C42.2362 43.843 41.9413 44.0887 41.671 44.2772C37.5177 41.7704 33.4381 43.4744 32.5697 48.0782C32.0209 51.0027 31.6031 53.96 31.3 56.9255C30.0712 68.8611 32.9056 79.6745 40.4749 89.0952C41.5972 90.4878 42.695 92.0443 44.6364 92.5522C44.0548 91.6265 43.3421 90.8319 42.6048 90.0618C37.747 84.991 34.7078 79.0027 33.3971 72.1051C31.8325 63.8804 32.8319 55.6885 33.7412 47.4966C33.8559 46.448 34.4211 45.4978 35.5106 45.1947C37.5013 44.6376 39.5902 43.6464 41.2777 45.8828C41.376 46.0138 41.7119 45.9565 41.9003 45.9893C42.7769 45.3012 43.6124 44.6458 44.6364 43.843C45.7997 45.0308 46.881 46.0384 47.8559 47.1361C48.8471 48.2502 49.6908 49.4954 50.6985 50.5931C54.3193 54.558 57.3257 58.9735 59.9717 63.6101C61.52 66.3216 63.0765 69.1396 63.9694 72.1051C65.4439 77.0367 65.6405 82.1484 64.3708 87.2274C64.2315 87.8008 64.2069 88.3989 64.1332 88.9887C64.2807 89.0296 64.4281 89.0706 64.5756 89.1116C64.9032 88.1941 65.3456 87.2929 65.5258 86.3427C66.812 79.7646 66.1566 73.4076 63.3714 67.2637C60.2912 60.4644 56.0396 54.4843 50.9852 49.0449Z" fill="#DAE6DA"/>
<path d="M48.7323 66.0021C47.8148 65.4369 47.0448 64.6013 46.3239 63.7903C45.8652 63.2742 45.6604 62.5451 45.2671 61.9635C44.4398 60.7265 42.9161 60.1531 41.5726 60.5709C40.2537 60.9723 40.1472 62.1191 40.0653 63.225C39.9997 64.0852 40.0079 64.9453 40.0079 65.8055C39.9998 67.7634 40.1472 69.7294 39.9752 71.6709C39.6721 75.0869 40.2045 78.3883 41.0155 81.6732C41.1548 82.2467 41.4415 82.7955 41.7364 83.5492C41.8757 83.1478 41.9904 82.9921 41.9658 82.8611C41.8757 82.2385 41.7938 81.6159 41.6299 81.0179C40.5568 76.9547 40.3684 72.8096 40.5076 68.6481C40.565 66.7721 40.8189 64.8962 41.1138 63.0448C41.335 61.6112 42.2771 61.2262 43.4813 62.0044C43.8581 62.242 44.2104 62.6352 44.3906 63.0366C45.2508 64.9945 46.7745 66.3134 48.4948 67.4521C49.912 68.386 50.9523 69.6065 51.665 71.1384C53.8605 75.8734 54.7534 80.8131 54.1636 86.015C54.0161 87.3257 53.967 88.6446 53.8687 89.9635C56.6293 84.1308 55.802 77.8968 53.3853 71.7446C52.4515 69.3362 50.9769 67.3865 48.7323 66.0021Z" fill="#DAE6DA"/>
</svg>
