<svg width="177" height="182" viewBox="0 0 177 182" fill="none" xmlns="http://www.w3.org/2000/svg">
<path d="M105.182 26.6739C104.846 27.8931 104.535 29.1392 104.006 30.2752C102.817 32.8076 102.649 35.2793 103.848 37.7957C103.969 38.0416 103.912 38.3758 103.941 38.7068C103.612 38.7417 103.373 38.841 103.154 38.7935C98.3237 37.8019 93.7792 38.9069 89.4766 41.114C86.8117 42.4757 84.3377 44.2076 81.7807 45.774C80.6346 46.474 79.4814 47.1691 78.3673 47.9131C72.7061 51.6869 66.8107 55.167 61.4677 59.3689C56.9452 62.9299 53.0511 67.2985 48.9069 71.3513C45.6139 74.5709 42.6164 78.0419 39.8784 81.771C36.6977 86.0974 34.6059 91.0855 30.7242 95.0347C28.0232 97.7731 25.4367 100.186 21.721 101.234C19.4772 101.865 17.5278 103.122 15.9758 104.873C14.2717 106.795 12.2662 108.013 9.73463 108.441C6.24835 109.03 3.46359 111.217 0.307552 112.574C0.368079 112.831 0.423573 113.095 0.4841 113.352C1.41603 113.089 2.41987 112.963 3.2689 112.535C4.94986 111.688 6.6725 111.363 8.5175 111.446C9.84325 111.504 11.2061 111.599 12.5075 111.394C14.1124 111.146 15.9861 111.024 17.2042 110.118C20.3913 107.734 23.8688 107.053 27.6397 107.029C30.5357 107.007 33.4271 106.844 36.3233 106.748C36.7985 106.73 37.2756 106.725 38.0742 106.71C35.1448 108.924 32.9643 111.58 29.516 112.249C29.1491 112.322 28.7928 112.574 28.4777 112.812C26.3475 114.444 24.006 114.439 21.51 114.057C19.4336 113.737 17.3093 113.693 15.204 113.651C13.5276 113.613 12.053 114.316 10.7654 115.291C12.089 115.412 13.3887 115.463 14.6517 115.67C16.8274 116.028 18.8189 116.856 20.7665 117.91C23.7893 119.541 26.9241 119.956 30.1782 118.058C31.289 117.408 32.6998 117.227 33.9933 116.973C36.4527 116.483 38.926 116.078 41.3972 115.661C43.8735 115.236 46.345 114.744 48.8349 114.479C51.7216 114.173 54.6251 114.007 57.5283 113.916C61.6983 113.789 65.5563 112.509 69.326 110.804C76.4472 107.568 83.6153 104.43 90.6896 101.097C93.5382 99.7583 96.3201 98.201 98.9318 96.4378C103.321 93.4677 107.576 90.2853 111.84 87.12C115.546 84.3736 118.427 80.9487 120.099 76.5847C120.465 75.6339 120.753 74.6599 121.077 73.7107C121.773 73.6778 122.321 73.6156 122.865 73.6353C131.61 74.0722 140.238 72.9608 148.838 71.3689C149.519 71.2392 150.255 71.2239 150.93 71.3256C154.645 71.872 158.368 72.392 162.054 73.0682C164.345 73.4869 166.294 73.0213 167.84 71.277C169.367 69.5613 171.304 68.6058 173.437 68.5174C174.412 68.4776 175.332 68.3354 176.208 68.108L174.033 66.5722C173.802 66.6017 173.565 66.6383 173.327 66.6629C170.967 66.8483 169.006 68.1821 167.426 69.9137C165.729 71.7661 163.882 72.2071 161.477 71.6223C158.922 70.996 156.252 70.8018 153.293 70.3611C153.985 70.0362 154.442 69.6419 154.871 69.645C157.852 69.7267 160.554 68.4766 163.364 67.7736C166.28 67.0389 169.135 66.1221 171.963 65.1107L170.384 63.996C154.626 69.5898 138.236 72.5643 120.967 72.1673C120.784 71.31 120.661 70.7095 120.467 69.8231C126.504 69.4187 132.434 70.2232 138.24 68.7026C132.679 68.3728 127.111 68.0382 121.155 67.6866C121.815 67.1995 122.173 66.8106 122.609 66.6257C124.41 65.8317 126.218 64.9992 128.074 64.3509C132.325 62.857 136.492 61.1853 140.391 58.8647C141.688 58.0999 142.968 57.8053 144.428 58.3437C145.372 58.6892 146.397 58.877 147.405 58.9681C150.14 59.2189 152.466 58.4419 154.298 56.1601C154.974 55.3212 155.687 54.6687 156.457 54.1739L154.352 52.6877C153.866 53.0936 153.389 53.5599 152.958 54.1115C152.671 54.4874 152.285 54.7817 151.956 55.1278C149.767 57.4246 147.439 58.3391 144.137 56.5219C147.279 55.1546 149.993 53.3668 152.535 51.4045L151.412 50.6119C149.773 51.5632 148.134 52.5146 146.486 53.449C145.314 54.1099 144.071 54.6344 142.927 55.3465C138.267 58.2537 133.25 60.3413 128.124 62.2244C125.172 63.3082 122.329 64.6836 119.59 65.8534C118.604 64.7617 117.534 63.5672 116.313 62.2131C117.897 58.8678 120.901 56.5041 123.392 53.0815C122.554 53.464 122.077 53.5879 121.718 53.8586C119.313 55.6714 116.908 57.4842 115.293 60.1439C115.082 60.4873 114.463 60.5747 114.024 60.7789C113.984 60.3005 113.886 59.8139 113.94 59.3493C113.974 59.0629 114.228 58.7926 114.403 58.5305C115.88 56.2446 115.887 56.2496 115.798 53.6501C117.922 52.9344 120.061 52.1539 122.236 51.5164C123.948 51.0126 125.676 51.1411 127.272 51.9787C129.541 53.1737 131.854 53.3082 134.318 52.4686C135.264 52.1412 136.34 52.2262 137.334 52.0396C138.171 51.8815 139.217 51.8598 139.779 51.3468C141.637 49.6831 143.809 48.3049 145.423 46.4051L143.543 45.0774C143 45.7114 142.409 46.3107 141.822 46.9342C139.738 49.1558 137.457 50.0181 134.513 50.5835C129.866 51.4768 129.683 50.8872 126.101 49.3326C126.419 49.0322 126.641 48.7179 126.952 48.5307C130.685 46.2962 133.75 43.3547 136.524 40.1111L135.471 39.3679C130.745 44.5726 125.135 48.661 118.43 50.9056C115.852 51.772 113.09 52.0489 110.259 52.6188C110.276 50.6291 110.29 49.0012 110.298 47.4552C112.852 47.2781 115.327 47.0345 117.815 46.9503C119.915 46.8807 121.8 46.2209 123.646 45.2444C127.351 43.2892 130.596 40.8069 133.561 38.0083L132.192 37.0422C131.534 37.6909 130.872 38.3468 130.214 38.9956C129.946 39.256 129.576 39.4228 128.884 39.8659C129.405 38.4885 129.936 37.1403 130.508 35.8532L129.021 34.8029C128.672 35.5201 128.344 36.2521 128.05 36.9968C126.805 40.0999 124.784 42.74 121.762 44.428C120.181 45.3129 118.473 45.3488 116.388 45.3536C117.084 44.7538 117.508 44.3468 117.972 43.9887C121.749 41.111 124.823 37.5763 127.391 33.6414L125.777 32.5019C125.688 32.6426 125.599 32.7833 125.517 32.9289C123.311 36.4556 120.542 39.4991 117.299 42.1117C116.377 42.852 115.603 43.8146 114.628 44.4647C113.745 45.061 112.71 45.5291 111.68 45.7657C110.67 46.0051 109.729 45.7899 109.238 44.5337C108.882 43.6081 108.149 42.8444 107.604 42.0527C111.335 37.3337 115.317 32.8558 116.908 26.8187C116.95 26.6555 116.999 26.4972 117.048 26.3389L115.42 25.1895C114.338 28.9855 113.072 32.6405 110.236 35.5839C109.589 36.2618 109.184 37.1636 108.592 37.9125C107.87 38.8157 107.076 39.6574 106.318 40.5237C106.112 40.4427 105.913 40.3667 105.708 40.2857C106.406 38.6704 106.035 37.2307 105.496 35.7156C105.16 34.7614 105.289 33.536 105.531 32.5081C106.038 30.361 106.751 28.2636 107.337 26.3013C108.417 25.8438 109.544 25.633 110.3 24.9789C111.089 24.294 111.36 23.3293 111.378 22.3358L109.301 20.8694C109.363 21.8233 109.176 22.804 108.832 23.7818C106.221 23.8758 105.865 24.202 105.182 26.6739ZM110.868 53.9905C111.704 53.8637 112.562 53.8699 113.46 53.819C114.58 56.2688 112.203 57.6841 112.48 59.9133C110.705 59.6126 109.135 59.3496 107.374 59.0589C108.182 57.4674 108.875 56.0088 109.689 54.6031C109.871 54.2712 110.444 54.0551 110.868 53.9905ZM104.563 61.3128C106.269 61.5325 107.982 61.6825 109.693 61.8951C112.654 62.2731 115.118 63.8312 116.75 66.1071C118.556 68.613 119.071 71.7704 118.164 74.887C116.976 78.9825 114.401 82.2273 111.044 84.7486C106.038 88.5032 100.956 92.1407 95.822 95.7193C94.1442 96.8894 92.2761 97.8077 90.4154 98.656C83.4541 101.844 76.4548 104.951 69.4665 108.088C69.2523 108.183 69.0141 108.207 68.787 108.261C67.6562 101.597 67.0341 100.334 63.7716 98.9079C64.2547 99.6236 64.7308 100.334 65.2139 101.05C66.5182 102.956 67.369 105.012 67.3018 107.416C67.265 108.674 66.7576 109.408 65.5237 109.875C62.5341 110.996 59.4588 111.554 56.3053 111.672C50.0277 111.896 43.7647 112.248 37.6898 114.21C36.9529 114.45 36.142 114.541 35.3745 114.555C32.9043 114.599 30.5807 115.046 28.3601 116.314C26.2693 117.503 24.1533 117.015 22.1867 115.884C25.2588 116.447 27.6452 114.825 30.305 113.813C34.6945 112.138 38.1186 109.075 41.9419 106.594C44.8332 104.718 46.9114 101.968 48.732 99.0467C49.7352 97.4323 50.7624 95.8134 51.936 94.33C54.5815 90.9851 57.7144 88.2306 61.7629 86.7111C69.7724 83.7068 76.4916 78.4642 83.5156 73.758C87.8524 70.8473 92.2231 67.9926 96.5229 65.045C97.7458 64.2066 98.7643 64.2085 99.9403 64.9853C100.978 65.6751 102.17 66.1314 103.16 66.8733C104.071 67.5487 104.804 68.462 105.582 69.2363C105.858 67.729 105.567 66.7853 104.086 65.4287C103.008 64.4536 101.78 63.63 100.567 62.6981C101.798 61.609 103.059 61.1185 104.563 61.3128ZM108.432 49.7556C108.256 52.0607 108.009 54.3163 106.638 56.3026C105.52 57.9318 104.254 59.1579 102.112 59.3474C100.992 59.4448 99.8433 60.0145 98.835 60.6085C95.7027 62.4537 92.5903 64.3451 89.5459 66.3486C87.9709 67.388 86.5548 68.6788 85.0747 69.8816C84.5814 70.2825 84.2001 70.8375 83.6828 71.168C77.5751 75.0977 71.4495 78.9932 65.1638 83.0112C63.3343 79.6751 62.2279 76.3572 58.5366 75.2709C59.5819 76.4264 60.7279 77.5138 61.6454 78.761C62.6039 80.0692 63.358 81.5329 64.2977 83.1061C62.9165 83.8114 61.7354 84.4119 60.4518 85.0683C59.0216 83.2665 58.1605 80.9566 55.4274 79.8832C56.9735 81.8633 58.2555 83.5176 59.6615 85.3238C58.7507 85.9438 58.1306 86.4051 57.4835 86.8152C53.4732 89.3678 50.187 92.667 47.7853 96.7835C44.2924 102.773 38.8928 105.03 32.3631 105.194C29.6237 105.261 26.8805 105.23 24.1439 105.353C21.3139 105.474 18.7765 106.551 16.5914 108.38C14.493 110.131 12.1303 110.528 9.50225 110.289C9.60442 110.04 9.64322 109.821 9.71054 109.815C12.855 109.338 15.3696 107.817 17.6864 105.578C19.1078 104.205 21.0975 103.234 22.9867 102.598C26.4888 101.421 29.2808 99.5066 31.5255 96.5209C33.4686 93.9325 35.7225 91.5742 38.0437 88.8673C39.266 89.9658 40.4582 91.0323 41.6505 92.0988C41.2307 90.3254 40.1146 89.0022 38.4526 87.7967C38.9118 87.0719 39.2944 86.4108 39.7191 85.7794C42.8231 81.249 46.2246 76.9823 50.1904 73.1673C51.6238 71.7924 53.0782 70.4324 54.3673 68.9342C55.3439 67.8041 56.3046 67.6796 57.4477 68.3689C58.9708 69.2944 60.5009 70.2249 61.9756 71.234C63.1154 72.0173 64.1676 72.91 65.4254 73.8837C65.0027 71.0271 63.2391 69.236 57.6371 65.7625C60.0786 63.1085 62.7904 60.8166 65.6973 58.7694C69.7194 55.9469 73.7545 53.1657 77.8356 50.4384C80.5893 48.5934 83.4729 46.9366 86.2176 45.0746C87.8551 43.9616 89.4495 43.8778 91.0722 44.7666C92.9797 45.8029 94.8206 46.9635 96.6355 48.0416C96.6691 46.5346 95.6035 45.4077 91.2692 42.6258C91.9935 42.2702 92.5351 41.8605 93.1342 41.7268C95.667 41.1924 98.2078 40.7064 100.765 40.2858C101.346 40.1929 102.072 40.2666 102.573 40.5557C105.409 42.1833 108.768 45.4223 108.432 49.7556Z" fill="#01693A" fill-opacity="0.12"/>
<path d="M118.199 27.7187C118.256 29.0971 117.941 30.512 117.729 32.4499C119.087 30.9891 119.522 29.5837 119.731 28.2006L118.208 27.1255C118.203 27.3256 118.185 27.5158 118.199 27.7187Z" fill="#01693A" fill-opacity="0.12"/>
<path d="M100.67 69.803C102.258 72.0371 103.55 73.8701 105.01 75.9282C105.468 72.6128 103.803 70.1312 100.67 69.803Z" fill="#01693A" fill-opacity="0.12"/>
<path d="M67.6754 96.0748C68.478 98.4825 69.642 100.289 70.809 101.049C70.6054 98.165 69.7868 96.7628 67.6754 96.0748Z" fill="#01693A" fill-opacity="0.12"/>
<path d="M80.2314 92.1279C80.5734 94.7563 80.9083 97.3796 81.2816 100.276C82.2889 97.2412 81.5088 94.6674 80.2314 92.1279Z" fill="#01693A" fill-opacity="0.12"/>
<path d="M82.4922 90.5453C82.7935 91.5929 82.8394 92.7492 83.8334 93.5902C84.2162 91.4842 84.1195 91.234 82.4922 90.5453Z" fill="#01693A" fill-opacity="0.12"/>
<path d="M72.7113 97.4147C72.6221 97.3624 72.448 97.4749 72.0972 97.5697C72.3116 98.0851 72.5151 98.5713 72.7136 99.0646C72.8956 99.0005 73.0846 98.9412 73.2666 98.8771C73.4653 98.2681 73.3442 97.7544 72.7113 97.4147Z" fill="#DAE6DA"/>
<path d="M89.7643 49.1198C92.243 50.9555 94.3232 53.0878 95.4455 56.4277C95.6439 52.8107 93.0188 49.4696 89.7643 49.1198Z" fill="#01693A" fill-opacity="0.12"/>
<path d="M97.3819 45.9246C98.1795 46.9693 98.982 48.0069 99.7866 49.0566C99.8026 47.366 99.2587 46.1258 97.3819 45.9246Z" fill="#01693A" fill-opacity="0.12"/>
<path d="M39.1771 92.6086C39.8578 93.4317 40.5064 94.2107 41.5044 95.4184C40.9905 92.84 40.8864 92.7343 39.1771 92.6086Z" fill="#01693A" fill-opacity="0.12"/>
<path d="M101.3 46.2602C100.922 45.8431 100.531 45.4282 100.153 45.0111C99.9743 45.1743 99.7941 45.3253 99.6158 45.4884C100.058 45.8753 100.5 46.2622 100.941 46.6491C101.063 46.5211 101.178 46.3881 101.3 46.2602Z" fill="#01693A" fill-opacity="0.12"/>
<path d="M129.34 57.1076C127.13 57.9447 124.948 58.845 122.789 59.8037C121.81 60.2366 120.871 60.8367 120.478 62.6144C122.859 61.5658 124.765 60.6532 126.717 59.8692C128.762 59.0435 130.872 58.3927 132.915 57.5549C134.889 56.7545 136.794 55.7984 138.75 54.9638C140.694 54.1315 142.672 53.3552 144.227 51.8089C143.801 51.7865 143.435 51.9027 143.076 52.0239C138.497 53.7145 133.901 55.383 129.34 57.1076Z" fill="#01693A" fill-opacity="0.12"/>
</svg>
