<svg width="60" height="60" viewBox="0 0 60 60" fill="none" xmlns="http://www.w3.org/2000/svg">
<g clip-path="url(#clip0_670_4)">
<path opacity="0.968" fill-rule="evenodd" clip-rule="evenodd" d="M59.9414 58.1836C59.9414 58.457 59.9414 58.7305 59.9414 59.0039C59.8093 59.0768 59.6922 59.1744 59.5898 59.2968C39.8242 59.375 20.0586 59.375 0.292969 59.2968C0.190612 59.1744 0.0734251 59.0768 -0.0585938 59.0039C-0.0585938 58.7305 -0.0585938 58.457 -0.0585938 58.1836C0.0800099 58.0659 0.236259 57.9682 0.410156 57.8906C3.53516 57.8516 6.66015 57.8124 9.78516 57.7734C8.22918 56.4692 7.29168 54.8091 6.97266 52.7929C5.87428 52.7212 4.78054 52.6236 3.69141 52.5C2.95078 52.15 2.4625 51.5837 2.22656 50.8007C2.14843 48.8867 2.14843 46.9726 2.22656 45.0586C2.39607 43.7042 2.94295 42.5323 3.86719 41.5429C4.28777 38.4134 5.79168 35.972 8.37891 34.2187C7.19696 33.1632 6.92352 31.9132 7.55859 30.4687C6.26953 30.4297 4.98047 30.3906 3.69141 30.3515C3.55062 30.2457 3.45295 30.1091 3.39844 29.9414C3.32031 24.9023 3.32031 19.8632 3.39844 14.8242C3.44229 14.7168 3.50088 14.6191 3.57422 14.5312C8.40812 14.3373 13.2519 14.2983 18.1055 14.414C18.2732 14.4685 18.4098 14.5663 18.5156 14.707C18.5546 16.8945 18.5938 19.082 18.6328 21.2695C19.9383 18.1272 22.2234 16.1155 25.4883 15.2343C22.3499 13.0748 21.3538 10.1646 22.5 6.50388C23.6797 3.37044 25.8868 1.39778 29.1211 0.585909C31.5961 0.304036 33.686 1.06576 35.3906 2.87106C36.8169 4.55153 37.813 6.46559 38.3789 8.61325C38.3616 9.23258 38.0686 9.46695 37.5 9.31638C37.2564 10.8752 37.647 12.2423 38.6719 13.4179C38.6338 14.4528 38.1455 15.195 37.207 15.6445C37.1318 17.1833 36.3506 18.1402 34.8633 18.5156C34.1246 18.626 33.3824 18.7041 32.6367 18.75C33.881 20.1145 35.3653 21.13 37.0898 21.7968C38.7809 22.0229 40.4605 22.3159 42.1289 22.6758C44.1253 22.2059 46.1175 21.7176 48.1055 21.2109C48.1992 20.7328 48.2578 20.2445 48.2812 19.7461C48.4185 19.5828 48.5943 19.4851 48.8086 19.4531C50.0586 19.3749 51.3086 19.3749 52.5586 19.4531C52.7729 19.4851 52.9487 19.5828 53.0859 19.7461C53.1444 20.4481 53.164 21.1513 53.1445 21.8554C54.9675 22.3727 55.7292 23.5836 55.4297 25.4883C55.1129 26.6059 54.3902 27.309 53.2617 27.5976C53.179 28.3033 53.1009 29.0065 53.0273 29.707C52.9658 29.7881 52.8877 29.8467 52.793 29.8828C51.3867 29.9609 49.9805 29.9609 48.5742 29.8828C48.3922 29.7542 48.236 29.598 48.1055 29.414C48.0273 29.3359 47.9493 29.3359 47.8711 29.414C49.7072 33.4576 50.7814 37.6958 51.0938 42.1289C55.5361 43.7217 57.7235 46.8857 57.6562 51.6211C57.5586 51.7187 57.4609 51.8164 57.3633 51.914C56.583 51.9726 55.8018 51.9921 55.0195 51.9726C54.9737 54.3492 54.0362 56.2828 52.207 57.7734C54.6289 57.8124 57.0507 57.8516 59.4727 57.8906C59.6466 57.9682 59.8028 58.0659 59.9414 58.1836ZM30.0586 25.7226C33.1504 28.9809 36.8418 29.9184 41.1328 28.5351C41.3696 30.7445 41.6235 32.9515 41.8945 35.1562C41.7335 36.3035 41.3624 37.3776 40.7812 38.3789C39.9888 39.3772 39.1685 40.3537 38.3203 41.3086C38.2813 39.1992 38.2421 37.0898 38.2031 34.9804C37.506 31.8614 35.6114 29.8886 32.5195 29.0625C31.4664 28.9531 30.4117 28.8555 29.3555 28.7695C29.2283 28.3859 29.2087 27.9954 29.2969 27.5976C29.5199 26.9568 29.7738 26.3319 30.0586 25.7226ZM26.7773 49.2773C30.372 49.2383 33.9657 49.2773 37.5586 49.3945C37.4024 50.1758 37.4024 50.957 37.5586 51.7382C37.6201 51.8193 37.6983 51.8779 37.793 51.914C38.5342 51.9726 39.2763 51.9921 40.0195 51.9726C40.113 54.3668 41.0896 56.3004 42.9492 57.7734C35.0195 57.8516 27.0899 57.8516 19.1602 57.7734C20.7056 56.4598 21.6236 54.7997 21.9141 52.7929C22.8619 52.6972 23.8189 52.6386 24.7852 52.6171C26.3889 52.0881 27.053 50.9748 26.7773 49.2773Z" fill="#020101"/>
<path fill-rule="evenodd" clip-rule="evenodd" d="M29.4725 1.93364C31.5441 1.82693 33.2433 2.56912 34.5702 4.16021C35.4183 5.25025 36.102 6.44166 36.621 7.73443C35.6445 7.77348 34.6678 7.81255 33.6913 7.85161C31.6798 8.16079 30.3711 9.27407 29.7655 11.1915C29.7459 12.5993 29.6873 14.0056 29.5897 15.4102C27.5476 14.9465 25.8484 13.9309 24.4921 12.3633C23.4093 10.6292 23.2139 8.79331 23.9061 6.85552C24.9873 4.3078 26.8429 2.66718 29.4725 1.93364Z" fill="#F34043"/>
<path opacity="0.999" fill-rule="evenodd" clip-rule="evenodd" d="M34.3946 9.08203C34.9415 9.08203 35.4883 9.08203 36.0352 9.08203C35.9427 10.3218 36.0794 11.5328 36.4453 12.7148C36.5943 13.0586 36.7896 13.371 37.0313 13.6523C37.097 13.9802 36.9603 14.195 36.6211 14.2969C36.2182 14.2811 35.8861 14.4178 35.625 14.707C35.9201 16.5995 35.0998 17.4198 33.1641 17.168C32.4835 17.1825 31.8195 17.1043 31.1719 16.9336C31.0937 15.0586 31.0937 13.1836 31.1719 11.3086C31.4541 10.4403 32.0206 9.83486 32.8711 9.49219C33.389 9.3337 33.8967 9.19699 34.3946 9.08203Z" fill="#FCD2C3"/>
<path fill-rule="evenodd" clip-rule="evenodd" d="M4.8632 15.7617C5.44094 15.7262 6.00734 15.7653 6.56242 15.8789C6.60148 17.7149 6.64055 19.5507 6.67961 21.3867C6.9884 21.7763 7.3595 21.8349 7.79289 21.5625C8.2485 21.0479 8.75631 20.5987 9.31633 20.2148C9.84576 20.7248 10.3926 21.2131 10.957 21.6797C11.2906 21.7903 11.5836 21.7317 11.8359 21.5039C12.0081 19.601 12.0667 17.687 12.0116 15.7617C13.7304 15.7617 15.4491 15.7617 17.1679 15.7617C17.1679 19.1601 17.1679 22.5586 17.1679 25.957C13.0273 25.957 8.88664 25.957 4.74602 25.957C4.70797 22.5499 4.74702 19.1515 4.8632 15.7617Z" fill="#D6AC7E"/>
<path fill-rule="evenodd" clip-rule="evenodd" d="M7.91006 15.8789C8.8085 15.8789 9.70693 15.8789 10.6054 15.8789C10.6443 17.0534 10.6052 18.2252 10.4882 19.3945C10.2362 19.2013 10.0019 18.9865 9.78506 18.75C9.4335 18.5156 9.08194 18.5156 8.73037 18.75C8.51356 18.9865 8.27919 19.2013 8.02725 19.3945C7.91024 18.2252 7.87117 17.0534 7.91006 15.8789Z" fill="#DEC19E"/>
<path fill-rule="evenodd" clip-rule="evenodd" d="M26.3086 16.5821C27.1715 16.5433 28.0309 16.5825 28.8867 16.6993C30.7452 19.3984 33.1281 21.4882 36.0352 22.9688C37.2774 23.4595 38.5664 23.6939 39.9024 23.672C41.0353 23.7624 41.9924 24.2116 42.7735 25.0196C43.1081 25.6548 42.9714 26.1431 42.3633 26.4845C37.6392 28.7968 33.6549 27.8983 30.4102 23.7891C30.2148 23.711 30.0196 23.711 29.8242 23.7891C28.3946 25.2247 27.7305 26.9629 27.8321 29.004C24.7462 29.004 21.6601 29.004 18.5742 29.004C18.5344 25.5506 19.4523 22.3865 21.3281 19.5118C22.6568 17.9404 24.3169 16.9638 26.3086 16.5821Z" fill="#FBDB56"/>
<path opacity="0.998" fill-rule="evenodd" clip-rule="evenodd" d="M49.6289 20.918C50.332 20.918 51.0352 20.918 51.7383 20.918C51.7383 23.4571 51.7383 25.9961 51.7383 28.5352C51.0352 28.5352 50.332 28.5352 49.6289 28.5352C49.6289 25.9961 49.6289 23.4571 49.6289 20.918Z" fill="#F44043"/>
<path opacity="0.999" fill-rule="evenodd" clip-rule="evenodd" d="M47.9883 22.6758C48.1443 23.512 48.2223 24.3909 48.2227 25.3125C48.1836 26.1914 48.1445 27.0703 48.1055 27.9492C46.7859 27.5607 45.4579 27.2092 44.1211 26.8945C44.5439 25.8039 44.3877 24.8078 43.6523 23.9062C45.0995 23.4763 46.5449 23.0661 47.9883 22.6758Z" fill="#FC666D"/>
<path opacity="0.998" fill-rule="evenodd" clip-rule="evenodd" d="M53.1445 23.3789C54.1037 23.8941 54.3185 24.6362 53.789 25.6055C53.6275 25.8062 53.4322 25.9625 53.2031 26.0742C53.1445 25.1767 53.125 24.2782 53.1445 23.3789Z" fill="#F7D45F"/>
<path fill-rule="evenodd" clip-rule="evenodd" d="M4.86328 27.3633C8.96484 27.3633 13.0664 27.3633 17.168 27.3633C17.168 27.8711 17.168 28.3789 17.168 28.8867C13.0664 28.8867 8.96484 28.8867 4.86328 28.8867C4.86328 28.3789 4.86328 27.8711 4.86328 27.3633Z" fill="#E2C4A1"/>
<path fill-rule="evenodd" clip-rule="evenodd" d="M42.5977 28.7695C43.7706 28.8896 44.9425 29.0264 46.1133 29.1797C47.5838 32.302 48.6579 35.5637 49.3359 38.9648C49.481 39.936 49.5396 40.9125 49.5117 41.8945C45.5658 41.2242 42.2259 42.318 39.4922 45.1758C38.9284 45.9714 38.4401 46.8113 38.0274 47.6953C34.2776 47.7539 30.5276 47.7735 26.7773 47.7539C27.1522 44.4224 25.9412 41.8637 23.1445 40.0781C22.2524 39.6653 21.3149 39.4309 20.332 39.375C16.2695 39.2968 12.2071 39.2968 8.14453 39.375C7.31542 39.4846 6.53416 39.7385 5.80078 40.1367C6.48717 37.5141 8.1278 35.6977 10.7227 34.6875C16.582 34.6093 22.4414 34.6093 28.3008 34.6875C28.6341 35.8097 28.8098 36.962 28.8281 38.1445C28.8307 40.6549 28.9089 43.1549 29.0625 45.6445C29.1601 45.7422 29.2579 45.8399 29.3555 45.9375C32.168 46.0157 34.9805 46.0157 37.793 45.9375C38.0078 45.8789 38.1445 45.7422 38.2031 45.5273C38.1818 44.5968 38.4162 43.7374 38.9063 42.9492C39.8047 41.8945 40.7031 40.8398 41.6016 39.7852C42.6679 38.364 43.2342 36.7624 43.3008 34.9805C43.1049 32.903 42.8705 30.8327 42.5977 28.7695Z" fill="#F34043"/>
<path opacity="0.866" fill-rule="evenodd" clip-rule="evenodd" d="M4.86335 27.3633C4.86335 27.8711 4.86335 28.3789 4.86335 28.8867C8.96491 28.8867 13.0665 28.8867 17.168 28.8867C13.0474 29.0037 8.90678 29.0428 4.74616 29.0039C4.70872 28.434 4.74779 27.8871 4.86335 27.3633Z" fill="#B69E83"/>
<path fill-rule="evenodd" clip-rule="evenodd" d="M9.55073 30.4102C16.1524 30.3906 22.754 30.4102 29.3554 30.4688C30.2189 31.0627 30.3946 31.8244 29.8828 32.7539C29.6977 32.9345 29.4828 33.0713 29.2382 33.1641C22.6757 33.2422 16.1132 33.2422 9.55073 33.1641C8.72462 32.6383 8.50978 31.9156 8.9062 30.9961C9.1089 30.7732 9.32374 30.5779 9.55073 30.4102Z" fill="#5E5B83"/>
<path fill-rule="evenodd" clip-rule="evenodd" d="M31.2305 30.5273C33.6721 30.5904 35.4103 31.7623 36.4453 34.043C36.5808 34.4675 36.698 34.8971 36.7969 35.332C36.8555 38.4177 36.875 41.5037 36.8555 44.5898C34.6679 44.5898 32.4805 44.5898 30.293 44.5898C30.3514 41.6544 30.2538 38.7247 30 35.8008C29.9081 35.3848 29.8105 34.9746 29.707 34.5703C31.4127 33.6507 31.9205 32.3031 31.2305 30.5273Z" fill="#1EBCF9"/>
<path fill-rule="evenodd" clip-rule="evenodd" d="M8.26172 40.7227C12.4025 40.7031 16.5431 40.7227 20.6836 40.7813C23.2437 41.3101 24.7867 42.8531 25.3125 45.4102C25.3321 46.2501 25.3515 47.0898 25.3711 47.9297C25.387 48.8592 25.3284 49.7773 25.1953 50.6836C25.0586 50.8204 24.9219 50.957 24.7852 51.0938C17.9101 51.1719 11.0352 51.1719 4.16016 51.0938C3.94005 50.9129 3.76426 50.6981 3.63282 50.4492C3.55469 48.7304 3.55469 47.0118 3.63282 45.293C4.19009 42.7606 5.73305 41.2371 8.26172 40.7227Z" fill="#FD666D"/>
<path fill-rule="evenodd" clip-rule="evenodd" d="M8.14453 42.832C9.94184 42.8125 11.7387 42.832 13.5352 42.8906C14.1601 43.3204 14.1601 43.75 13.5352 44.1797C11.7773 44.2187 10.0195 44.2579 8.26172 44.2969C7.73438 44.5117 7.36328 44.8828 7.14844 45.4102C7.10938 46.4649 7.07031 47.5195 7.03125 48.5742C6.65189 49.3048 6.2222 49.3438 5.74219 48.6914C5.66406 47.5586 5.66406 46.4258 5.74219 45.293C6.09564 44.0217 6.89643 43.2014 8.14453 42.832Z" fill="#050101"/>
<path fill-rule="evenodd" clip-rule="evenodd" d="M45.293 43.3008C46.7779 43.2812 48.2623 43.3008 49.7461 43.3594C53.6532 44.1996 55.8016 46.602 56.1914 50.5664C50.4102 50.5664 44.6289 50.5664 38.8477 50.5664C39.3446 46.6715 41.493 44.2495 45.293 43.3008Z" fill="#FC666D"/>
<path fill-rule="evenodd" clip-rule="evenodd" d="M45.8789 45.2929C46.5755 45.1525 47.0442 45.4064 47.2852 46.0546C47.2379 46.2272 47.1598 46.3834 47.0508 46.5233C45.4535 46.6113 44.1254 47.2363 43.0664 48.3983C42.2391 48.5473 41.9461 48.2153 42.1875 47.4022C43.1745 46.255 44.4049 45.5518 45.8789 45.2929Z" fill="#080303"/>
<path opacity="0.999" fill-rule="evenodd" clip-rule="evenodd" d="M41.543 51.9727C42.0899 51.9727 42.6367 51.9727 43.1836 51.9727C43.2573 53.8639 44.1558 55.2116 45.8789 56.0156C48.4876 56.81 50.4212 56.0093 51.6797 53.6133C51.8604 53.0807 51.9581 52.5339 51.9727 51.9727C52.5196 51.9727 53.0664 51.9727 53.6133 51.9727C53.1994 55.6482 51.1486 57.6404 47.4609 57.9492C44.897 57.768 43.0611 56.5181 41.9531 54.1992C41.7032 53.477 41.5665 52.7348 41.543 51.9727Z" fill="#7B9DAE"/>
<path fill-rule="evenodd" clip-rule="evenodd" d="M44.4727 51.9727C46.5039 51.9727 48.5352 51.9727 50.5664 51.9727C50.4005 53.7988 49.4044 54.7754 47.5781 54.9023C45.7371 54.7907 44.7019 53.814 44.4727 51.9727Z" fill="#C9E3E6"/>
<path opacity="0.999" fill-rule="evenodd" clip-rule="evenodd" d="M8.49609 52.5585C9.0054 52.5391 9.51321 52.5587 10.0195 52.6171C10.8839 55.4912 12.7979 56.663 15.7617 56.1328C17.4341 55.5152 18.4888 54.3433 18.9258 52.6171C19.4321 52.5587 19.9399 52.5391 20.4492 52.5585C19.819 55.9229 17.7878 57.7198 14.3555 57.9492C11.0155 57.6482 9.06243 55.8514 8.49609 52.5585Z" fill="#7A9CAD"/>
<path fill-rule="evenodd" clip-rule="evenodd" d="M11.543 52.5586C13.4961 52.5586 15.4492 52.5586 17.4023 52.5586C17.0218 54.108 16.0257 54.8893 14.4141 54.9023C12.8493 54.8538 11.8922 54.0725 11.543 52.5586Z" fill="#C6DFE2"/>
</g>
<defs>
<clipPath id="clip0_670_4">
<rect width="60" height="60" fill="white"/>
</clipPath>
</defs>
</svg>
