<svg width="60" height="60" viewBox="0 0 60 60" fill="none" xmlns="http://www.w3.org/2000/svg">
<g clip-path="url(#clip0_671_196)">
<path opacity="0.969" fill-rule="evenodd" clip-rule="evenodd" d="M27.5976 0.0586297C32.3254 -0.240665 36.8567 0.560117 41.1914 2.46097C44.1658 3.77217 47.0173 5.29561 49.7461 7.03129C49.8868 7.13705 49.9845 7.27377 50.039 7.44144C50.1172 13.379 50.1172 19.3164 50.039 25.2539C49.5324 30.0767 47.4426 34.0415 43.7695 37.1485C39.5117 40.2344 35.2538 43.3204 30.9961 46.4063C30.2929 46.9532 29.5898 46.9532 28.8867 46.4063C25.1694 43.6655 21.4194 40.9702 17.6367 38.3204C13.0767 35.1605 10.479 30.8051 9.84371 25.2539C9.72762 19.2286 9.76669 13.2129 9.9609 7.20707C13.9046 4.58111 18.1429 2.53032 22.6757 1.05472C24.31 0.607143 25.9507 0.275113 27.5976 0.0586297Z" fill="#000100"/>
<path fill-rule="evenodd" clip-rule="evenodd" d="M27.4805 1.93357C30.9266 1.66273 34.286 2.07289 37.5586 3.16404C41.3264 4.45231 44.8616 6.1906 48.1641 8.37888C48.2422 13.7305 48.2422 19.082 48.1641 24.4336C47.7722 29.1436 45.7604 32.9913 42.1289 35.9765C38.0501 38.8639 33.9875 41.7742 29.9414 44.707C25.8953 41.7742 21.8327 38.8639 17.7539 35.9765C14.1204 32.9871 12.1086 29.1395 11.7188 24.4336C11.6406 19.082 11.6406 13.7305 11.7188 8.37888C15.334 5.97574 19.2207 4.12026 23.3789 2.81247C24.7577 2.4923 26.125 2.19934 27.4805 1.93357Z" fill="#3ABA50"/>
<path fill-rule="evenodd" clip-rule="evenodd" d="M27.9493 3.33978C32.0582 3.18112 36.0035 3.90378 39.7852 5.50775C42.0426 6.51917 44.2301 7.65199 46.3477 8.90619C46.5292 9.04845 46.6659 9.22424 46.7579 9.43353C46.836 14.3944 46.836 19.3554 46.7579 24.3163C46.4581 28.686 44.6027 32.2211 41.1915 34.9218C37.5977 37.4999 34.004 40.0781 30.4102 42.6562C29.9376 42.7781 29.508 42.7 29.1211 42.4218C25.8215 40.0102 22.5012 37.6274 19.1602 35.2734C15.4201 32.5402 13.4084 28.8488 13.1251 24.1992C13.0092 19.1893 13.0483 14.1894 13.2422 9.19916C17.7141 6.15281 22.6165 4.19968 27.9493 3.33978Z" fill="#010301"/>
<path fill-rule="evenodd" clip-rule="evenodd" d="M27.7149 5.21472C32.1119 4.98084 36.2916 5.82068 40.2539 7.73425C41.8625 8.46988 43.4055 9.30972 44.8828 10.2538C44.961 15.0585 44.961 19.8632 44.8828 24.6678C44.4921 28.1644 42.9491 31.0355 40.2539 33.2811C36.8324 35.7528 33.3948 38.1942 29.9414 40.6053C26.488 38.1942 23.0505 35.7528 19.6289 33.2811C16.9335 31.0352 15.3906 28.1641 15 24.6678C14.9219 19.8632 14.9219 15.0585 15 10.2538C18.9086 7.70817 23.1468 6.02848 27.7149 5.21472Z" fill="#70D25F"/>
<path fill-rule="evenodd" clip-rule="evenodd" d="M28.418 6.26961C32.5142 5.86498 35.3461 7.54466 36.9141 11.3087C36.9625 11.6288 37.0406 11.9414 37.1485 12.2462C37.2071 13.4565 37.2265 14.6674 37.2071 15.879C38.6466 15.9325 39.6037 16.6357 40.0781 17.9884C40.1563 22.4805 40.1563 26.9728 40.0781 31.4649C39.6961 32.5111 38.9734 33.1947 37.9102 33.5157C32.5977 33.5939 27.2851 33.5939 21.9727 33.5157C20.8605 33.1846 20.1378 32.4621 19.8047 31.3477C19.7266 26.8946 19.7266 22.4415 19.8047 17.9884C20.2818 16.6325 21.2387 15.9294 22.6758 15.879C22.0887 12.5409 23.0653 9.78705 25.6055 7.61726C26.4764 7.00584 27.4139 6.55661 28.418 6.26961Z" fill="#040401"/>
<path fill-rule="evenodd" clip-rule="evenodd" d="M28.6523 8.14463C31.4914 7.75745 33.5812 8.81214 34.9218 11.3087C35.0627 11.6923 35.1799 12.0829 35.2734 12.4806C35.332 13.6127 35.3515 14.7456 35.332 15.879C35.1366 15.879 34.9414 15.879 34.7461 15.879C34.7655 14.7064 34.7461 13.5345 34.6875 12.3634C33.67 9.50091 31.6583 8.3095 28.6523 8.78916C26.8667 9.36383 25.7144 10.5552 25.1953 12.3634C25.1367 13.5345 25.1172 14.7064 25.1367 15.879C24.9413 15.879 24.7461 15.879 24.5507 15.879C24.5313 14.7846 24.5507 13.6908 24.6093 12.5977C25.1207 10.3483 26.4684 8.8639 28.6523 8.14463Z" fill="#53656E"/>
<path fill-rule="evenodd" clip-rule="evenodd" d="M29.2382 10.4882C30.966 10.3064 32.1573 11.0096 32.8124 12.5976C32.871 13.6906 32.8904 14.7844 32.871 15.8788C30.9178 15.8788 28.9648 15.8788 27.0116 15.8788C26.9617 14.6587 27.0203 13.4477 27.1874 12.246C27.6431 11.3792 28.3267 10.7933 29.2382 10.4882Z" fill="#71D360"/>
<path fill-rule="evenodd" clip-rule="evenodd" d="M22.2071 17.7539C27.3244 17.7344 32.4416 17.7539 37.5586 17.8125C37.8444 17.9032 38.0594 18.079 38.2032 18.3399C38.3188 22.6858 38.2798 27.0217 38.086 31.3477C37.9801 31.4884 37.8435 31.5861 37.6758 31.6406C32.4317 31.7565 27.1973 31.7175 21.9727 31.5235C21.8319 31.4176 21.7342 31.281 21.6797 31.1133C21.6016 26.8555 21.6016 22.5976 21.6797 18.3399C21.8195 18.1058 21.9953 17.9105 22.2071 17.7539Z" fill="#FED92C"/>
<path opacity="0.964" fill-rule="evenodd" clip-rule="evenodd" d="M4.16016 19.9805C6.52134 20.1347 7.82993 21.3847 8.08594 23.7305C8.10548 27.2077 8.16408 30.6843 8.26172 34.1602C9.57055 33.8495 10.7815 34.0643 11.8945 34.8047C14.5736 37.5229 17.2884 40.1986 20.0391 42.832C21.0702 44.1827 21.4999 45.7062 21.3281 47.4023C21.1857 48.4575 21.049 49.5122 20.918 50.5664C21.8119 50.3982 22.4564 50.7108 22.8516 51.5039C23.1978 52.5373 23.4517 53.5919 23.6133 54.668C23.6435 55.252 23.4091 55.7012 22.9102 56.0156C18.3478 57.2889 13.7775 58.5389 9.19922 59.7656C8.3994 59.9764 7.71581 59.8007 7.14844 59.2383C6.74367 58.0881 6.41164 56.9162 6.15234 55.7227C6.23146 54.843 6.70021 54.3157 7.55859 54.1406C7.90526 52.6772 7.57323 51.3686 6.5625 50.2148C4.75738 48.4102 3.03863 46.5352 1.40625 44.5898C0.857089 43.6874 0.544588 42.7107 0.46875 41.6602C0.390625 35.5664 0.390625 29.4727 0.46875 23.3789C0.866557 21.3203 2.09702 20.1874 4.16016 19.9805Z" fill="#020202"/>
<path opacity="0.964" fill-rule="evenodd" clip-rule="evenodd" d="M55.4882 19.9805C57.6865 20.0892 58.9951 21.222 59.414 23.3789C59.4921 29.4727 59.4921 35.5664 59.414 41.6602C59.3381 42.7107 59.0256 43.6874 58.4765 44.5898C56.844 46.5352 55.1254 48.4102 53.3202 50.2148C52.3095 51.3686 51.9775 52.6772 52.3241 54.1406C53.1825 54.3157 53.6513 54.843 53.7304 55.7227C53.471 56.9162 53.139 58.0881 52.7343 59.2383C52.1669 59.8007 51.4833 59.9764 50.6835 59.7656C46.1052 58.5389 41.5349 57.2889 36.9726 56.0156C36.4736 55.7012 36.2392 55.252 36.2694 54.668C36.4371 53.411 36.7692 52.2001 37.2655 51.0352C37.7537 50.6218 38.3201 50.4656 38.9647 50.5664C38.6925 49.014 38.5558 47.4516 38.5546 45.8789C38.7276 44.752 39.1573 43.7364 39.8437 42.832C42.5943 40.1986 45.3092 37.5229 47.9882 34.8047C49.1012 34.0643 50.3121 33.8495 51.621 34.1602C51.7186 30.6843 51.7772 27.2077 51.7968 23.7305C52.0324 21.4832 53.2629 20.2332 55.4882 19.9805Z" fill="#020202"/>
<path fill-rule="evenodd" clip-rule="evenodd" d="M29.004 20.0977C31.0508 19.8016 32.3984 20.6219 33.047 22.5587C33.2736 23.7446 32.9611 24.7603 32.1095 25.6055C32.0704 26.3868 32.0313 27.168 31.9923 27.9493C31.5003 29.1232 30.6214 29.6115 29.3556 29.4141C28.6329 29.1602 28.1447 28.672 27.8907 27.9493C27.8517 27.168 27.8125 26.3868 27.7735 25.6055C26.6352 24.3159 26.4789 22.9096 27.3048 21.3868C27.7678 20.7969 28.3341 20.3671 29.004 20.0977Z" fill="#050402"/>
<path fill-rule="evenodd" clip-rule="evenodd" d="M12.0117 45.0586C12.7573 44.9956 13.0111 44.605 12.7734 43.8868C11.1328 42.2461 9.49219 40.6055 7.85157 38.9649C7.54663 38.4992 7.37085 37.9914 7.32422 37.4415C8.10599 35.8102 9.27787 35.4781 10.8398 36.4454C13.4766 39.0821 16.1133 41.7188 18.75 44.3555C19.3656 45.4495 19.5608 46.6213 19.3359 47.8711C19.1831 48.9714 19.0073 50.0652 18.8086 51.1524C15.7704 52.0096 12.7235 52.8299 9.66797 53.6133C9.76192 52.3094 9.46895 51.0985 8.78907 49.9805C8.36483 49.3607 7.89608 48.7748 7.38282 48.2227C6.05469 46.8165 4.72656 45.4102 3.39844 44.004C2.96237 43.4444 2.64988 42.8193 2.46094 42.129C2.38281 35.8399 2.38281 29.5509 2.46094 23.2618C3.08928 21.9808 4.0463 21.6487 5.33203 22.2657C5.6758 22.531 5.9297 22.8631 6.09375 23.2618C6.17188 27.4024 6.17188 31.5431 6.09375 35.6836C5.03363 37.4502 5.11175 39.1689 6.32813 40.8399C7.79636 42.3473 9.30027 43.8121 10.8398 45.2344C11.2741 45.4776 11.6647 45.419 12.0117 45.0586Z" fill="#FDD5BC"/>
<path fill-rule="evenodd" clip-rule="evenodd" d="M29.3555 21.9727C30.9134 21.811 31.4798 22.4751 31.0547 23.9649C30.7376 24.2428 30.4642 24.5552 30.2344 24.9024C30.1954 25.7618 30.1562 26.6212 30.1172 27.4805C30 27.6368 29.8828 27.6368 29.7657 27.4805C29.7266 26.6212 29.6875 25.7618 29.6485 24.9024C29.4187 24.5552 29.1453 24.2428 28.8282 23.9649C28.4685 23.1399 28.6443 22.4758 29.3555 21.9727Z" fill="#EAEFF2"/>
<path fill-rule="evenodd" clip-rule="evenodd" d="M52.5585 37.4415C52.5119 37.9914 52.3361 38.4992 52.0312 38.9649C50.3906 40.6055 48.7499 42.2461 47.1093 43.8868C46.8795 44.6113 47.1333 45.0019 47.871 45.0586C48.218 45.419 48.6086 45.4776 49.0429 45.2344C50.5825 43.8121 52.0864 42.3473 53.5546 40.8399C54.771 39.1689 54.8491 37.4502 53.789 35.6836C53.7108 31.5431 53.7108 27.4024 53.789 23.2618C54.4174 21.9808 55.3743 21.6487 56.6601 22.2657C57.0038 22.531 57.2578 22.8631 57.4218 23.2618C57.5 29.5509 57.5 35.8399 57.4218 42.129C57.2329 42.8193 56.9204 43.4444 56.4843 44.004C55.1171 45.4492 53.75 46.8946 52.3828 48.3399C51.3164 49.3784 50.6132 50.6283 50.2734 52.0899C50.2149 52.5963 50.1953 53.104 50.2148 53.6133C47.1608 52.8497 44.1139 52.049 41.0742 51.211C40.8486 50.1105 40.6728 48.9972 40.5468 47.8711C40.3219 46.6213 40.5172 45.4495 41.1328 44.3555C43.7695 41.7188 46.4062 39.0821 49.0429 36.4454C50.0194 35.7422 50.9961 35.7422 51.9726 36.4454C52.2445 36.7358 52.4397 37.0677 52.5585 37.4415Z" fill="#FDD4BC"/>
<path fill-rule="evenodd" clip-rule="evenodd" d="M7.32421 37.4414C7.37084 37.9914 7.54662 38.4991 7.85155 38.9648C9.49218 40.6055 11.1328 42.2461 12.7734 43.8867C13.0111 44.605 12.7573 44.9955 12.0117 45.0586C12.2862 44.6816 12.3057 44.291 12.0703 43.8867C10.5859 42.4023 9.10156 40.918 7.61718 39.4336C7.22583 38.794 7.12818 38.1299 7.32421 37.4414Z" fill="#F3C2A7"/>
<path fill-rule="evenodd" clip-rule="evenodd" d="M52.5587 37.4414C52.7548 38.1299 52.657 38.794 52.2657 39.4336C50.7813 40.918 49.297 42.4023 47.8126 43.8867C47.5772 44.291 47.5967 44.6816 47.8712 45.0586C47.1335 45.0019 46.8797 44.6113 47.1095 43.8867C48.7501 42.2461 50.3907 40.6055 52.0314 38.9648C52.3363 38.4991 52.5121 37.9914 52.5587 37.4414Z" fill="#F3C2A7"/>
<path fill-rule="evenodd" clip-rule="evenodd" d="M20.6836 52.5586C20.8763 52.5335 21.052 52.5727 21.2109 52.6758C21.3668 53.2599 21.5034 53.8458 21.6211 54.4336C17.4786 55.5242 13.3379 56.6374 9.19922 57.7735C9.01027 57.8578 8.83448 57.8384 8.67188 57.7149C8.56215 57.2172 8.42543 56.7289 8.26172 56.25C8.2717 56.1203 8.31077 56.0031 8.37891 55.8985C12.5166 54.8649 16.6181 53.7516 20.6836 52.5586Z" fill="#61B1F0"/>
<path fill-rule="evenodd" clip-rule="evenodd" d="M38.7305 52.5586C43.0255 53.691 47.3223 54.8238 51.6211 55.957C51.5041 56.5425 51.3674 57.1284 51.2109 57.7148C51.0483 57.8384 50.8725 57.8578 50.6836 57.7734C46.6229 56.6801 42.5605 55.5864 38.4961 54.4922C38.377 54.4314 38.299 54.3336 38.2617 54.1992C38.4189 53.6483 38.5751 53.1014 38.7305 52.5586Z" fill="#61B1F0"/>
</g>
<defs>
<clipPath id="clip0_671_196">
<rect width="60" height="60" fill="white"/>
</clipPath>
</defs>
</svg>
