<svg width="60" height="60" viewBox="0 0 60 60" fill="none" xmlns="http://www.w3.org/2000/svg">
<g clip-path="url(#clip0_671_315)">
<path opacity="0.969" fill-rule="evenodd" clip-rule="evenodd" d="M40.9571 -0.0585938C46.3867 -0.0585938 51.8165 -0.0585938 57.2461 -0.0585938C58.604 0.322792 59.5025 1.18216 59.9414 2.51953C59.9414 3.53516 59.9414 4.55078 59.9414 5.56641C59.764 5.87055 59.4905 6.0268 59.1211 6.03516C58.8998 5.93883 58.6654 5.84118 58.418 5.74219C58.337 5.6171 58.2784 5.48038 58.2422 5.33203C58.2345 4.42138 58.1563 3.52294 58.0078 2.63672C57.7633 2.19115 57.3921 1.89818 56.8946 1.75781C51.6795 1.66038 46.4842 1.67991 41.3086 1.81641C40.6929 1.98271 40.2828 2.37333 40.0782 2.98828C40 5.72265 40 8.45704 40.0782 11.1914C40.2185 11.5694 40.4333 11.9014 40.7227 12.1875C41.3274 12.4113 41.9523 12.5677 42.5977 12.6562C43.0006 12.845 43.3521 13.0989 43.6524 13.418C43.8352 13.7055 43.9524 14.018 44.0039 14.3555C43.965 15.6469 44.0041 16.9359 44.1211 18.2227C44.1923 18.2081 44.2313 18.1691 44.2383 18.1055C45.1758 16.543 46.1133 14.9804 47.0508 13.418C47.3978 13.0139 47.8274 12.7209 48.3399 12.5391C49.1592 12.4805 49.9796 12.461 50.8008 12.4805C52.8715 12.5 54.9417 12.4805 57.0117 12.4219C57.5391 12.2071 57.9102 11.8359 58.125 11.3086C58.1641 10.4883 58.2032 9.66797 58.2422 8.84766C58.4664 8.52184 58.7594 8.32652 59.1211 8.26172C59.4487 8.32769 59.7221 8.48394 59.9414 8.73047C59.9414 9.7461 59.9414 10.7617 59.9414 11.7773C59.4942 12.947 58.6739 13.7479 57.4805 14.1797C54.5434 14.183 51.6137 14.2611 48.6914 14.4141C47.4536 16.3166 46.2621 18.2502 45.1172 20.2148C44.4706 20.9673 43.7089 21.1039 42.8321 20.625C42.5515 20.3962 42.3757 20.1033 42.3047 19.7461C42.2657 18.0273 42.2266 16.3086 42.1875 14.5898C42.0503 14.4266 41.8745 14.3289 41.6602 14.2969C39.9271 14.2045 38.8138 13.3256 38.3203 11.6602C38.2422 8.65234 38.2422 5.64454 38.3203 2.63672C38.6737 1.20929 39.5526 0.310854 40.9571 -0.0585938Z" fill="black"/>
<path fill-rule="evenodd" clip-rule="evenodd" d="M41.3086 1.81639C44.5126 1.77736 47.7159 1.81641 50.918 1.93358C51.1165 2.17432 51.2533 2.44776 51.3282 2.75389C51.3866 3.26021 51.4062 3.76802 51.3867 4.27733C49.9799 4.25782 48.5737 4.27734 47.168 4.33592C46.5898 4.64822 46.453 5.09743 46.7578 5.68358C46.8901 5.87591 47.0659 5.99309 47.2852 6.03514C48.6314 6.15173 49.9987 6.1908 51.3867 6.15233C51.3867 6.89451 51.3867 7.63671 51.3867 8.37889C48.515 8.3401 45.6634 8.37917 42.8321 8.49608C42.2375 8.81272 42.1007 9.28147 42.4219 9.90233C42.5523 9.99666 42.689 10.0748 42.8321 10.1367C45.6634 10.2536 48.515 10.2927 51.3867 10.2539C51.4644 11.0764 51.2691 11.8186 50.8008 12.4805C49.9796 12.461 49.1592 12.4805 48.3399 12.539C47.8274 12.7209 47.3978 13.0139 47.0508 13.418C45.918 13.418 44.7852 13.418 43.6524 13.418C43.3521 13.0989 43.0006 12.845 42.5977 12.6562C41.9523 12.5676 41.3274 12.4113 40.7227 12.1875C40.4333 11.9014 40.2185 11.5694 40.0782 11.1914C40 8.45702 40 5.72264 40.0782 2.98827C40.2828 2.37331 40.6929 1.98269 41.3086 1.81639Z" fill="#B1E39E"/>
<path fill-rule="evenodd" clip-rule="evenodd" d="M41.3086 1.81649C46.4842 1.67999 51.6795 1.66046 56.8945 1.75789C57.3921 1.89826 57.7632 2.19123 58.0078 2.6368C58.1563 3.52302 58.2345 4.42146 58.2422 5.33211C58.2784 5.48046 58.337 5.61718 58.418 5.74227C58.6654 5.84126 58.8997 5.93891 59.1211 6.03524C59.1211 6.77742 59.1211 7.51962 59.1211 8.2618C58.7593 8.32661 58.4664 8.52192 58.2422 8.84774C58.2032 9.66805 58.164 10.4884 58.125 11.3087C57.9102 11.836 57.5391 12.2072 57.0117 12.422C54.9417 12.4806 52.8715 12.5001 50.8008 12.4806C51.2691 11.8187 51.4644 11.0765 51.3867 10.254C48.5149 10.2928 45.6634 10.2537 42.832 10.1368C47.051 10.1563 51.2698 10.1368 55.4883 10.0782C55.9233 9.78372 56.0599 9.37356 55.8984 8.84774C55.8008 8.75009 55.7031 8.65242 55.6055 8.55477C51.3478 8.49618 47.09 8.47664 42.832 8.49618C45.6634 8.37927 48.5149 8.3402 51.3867 8.37899C51.3867 7.6368 51.3867 6.89461 51.3867 6.15243C49.9986 6.1909 48.6314 6.15183 47.2852 6.03524C50.0198 6.05476 52.7542 6.03524 55.4883 5.97664C55.9233 5.68215 56.0599 5.272 55.8984 4.74618C55.7562 4.56468 55.5804 4.42795 55.3711 4.33602C54.0436 4.27744 52.7154 4.25791 51.3867 4.27743C51.4062 3.76812 51.3866 3.26031 51.3281 2.75399C51.2532 2.44786 51.1165 2.17441 50.918 1.93368C47.7158 1.81651 44.5126 1.77745 41.3086 1.81649Z" fill="#90CD9D"/>
<path opacity="0.981" fill-rule="evenodd" clip-rule="evenodd" d="M44.9414 59.9414C30.6445 59.9414 16.3477 59.9414 2.05078 59.9414C1.04571 59.6005 0.342584 58.9364 -0.0585938 57.9492C-0.0585938 57.4023 -0.0585938 56.8555 -0.0585938 56.3086C0.092867 55.9293 0.307711 55.5777 0.585938 55.2539C0.0131138 50.4747 1.10686 46.1387 3.86719 42.2461C3.80667 41.0385 3.7676 39.8275 3.75 38.6133C4.00683 36.9833 4.92479 35.9481 6.50391 35.5078C9.98047 35.4688 13.457 35.4297 16.9336 35.3906C17.239 35.1635 17.4538 34.8706 17.5781 34.5117C17.6563 33.5742 17.6563 32.6367 17.5781 31.6992C14.9409 29.942 13.437 27.4811 13.0664 24.3164C11.1307 24.7262 9.82208 24.0231 9.14062 22.207C9.0625 20.6054 9.0625 19.0039 9.14062 17.4023C9.36557 16.6379 9.81478 16.052 10.4883 15.6445C10.5859 14.1616 10.6444 12.6773 10.6641 11.1914C11.197 6.79119 13.6384 4.15448 17.9883 3.28125C21.6993 3.20312 25.4101 3.20312 29.1211 3.28125C31.0924 3.78783 32.1471 5.05736 32.2852 7.08985C34.1271 7.19539 35.3967 8.09383 36.0938 9.78516C36.2429 11.693 36.3211 13.6071 36.3281 15.5273C37.2482 16.039 37.7559 16.8202 37.8516 17.8711C37.9297 20.293 37.9297 22.7148 37.8516 25.1367C37.5511 26.7259 36.6332 27.761 35.0977 28.2422C34.2773 28.2812 33.457 28.3204 32.6367 28.3594C31.7578 29.707 30.6445 30.8203 29.2969 31.6992C29.2187 32.5195 29.2187 33.3398 29.2969 34.1602C29.3732 34.645 29.5881 35.0551 29.9414 35.3906C33.418 35.4297 36.8945 35.4688 40.3711 35.5078C41.8349 35.8779 42.7529 36.7958 43.125 38.2617C43.1445 39.6295 43.1445 40.9966 43.125 42.3633C44.9632 44.83 46.0179 47.6034 46.2891 50.6836C46.3281 52.2461 46.3672 53.8086 46.4062 55.3711C47.3291 56.7497 47.2314 58.0583 46.1133 59.2969C45.7304 59.5465 45.3398 59.7613 44.9414 59.9414ZM35.8008 24.1992C36.1153 24.9469 35.92 25.5914 35.2148 26.1328C34.6563 26.434 34.0704 26.4926 33.457 26.3086C33.7029 25.6651 33.8591 25.001 33.9258 24.3164C34.5734 24.354 35.1984 24.315 35.8008 24.1992Z" fill="#020202"/>
<path fill-rule="evenodd" clip-rule="evenodd" d="M42.8319 4.27726C43.4412 4.22036 44.0271 4.29849 44.5897 4.51164C45.0956 5.08835 45.0175 5.57664 44.3554 5.97648C43.8084 6.05461 43.2616 6.05461 42.7147 5.97648C42.0782 5.36258 42.1172 4.79618 42.8319 4.27726Z" fill="#070906"/>
<path fill-rule="evenodd" clip-rule="evenodd" d="M51.3868 4.27733C52.7155 4.25782 54.0437 4.27735 55.3712 4.33593C55.5805 4.42786 55.7563 4.56458 55.8985 4.74608C56.06 5.2719 55.9234 5.68206 55.4884 5.97655C52.7543 6.03515 50.0199 6.05467 47.2852 6.03515C47.066 5.9931 46.8902 5.87591 46.7579 5.68358C46.4531 5.09744 46.5899 4.64822 47.1681 4.33593C48.5737 4.27735 49.98 4.25782 51.3868 4.27733Z" fill="#040604"/>
<path fill-rule="evenodd" clip-rule="evenodd" d="M18.3399 5.09765C20.7621 5.07813 23.184 5.09765 25.6056 5.15625C26.8823 6.70082 27.5463 8.47817 27.5977 10.4883C26.207 10.7967 24.8007 11.031 23.379 11.1914C21.8883 10.9945 20.4038 10.7601 18.9259 10.4883C16.9977 10.5992 15.7282 11.5757 15.1173 13.418C15.0587 14.9409 15.0391 16.4644 15.0587 17.9883C14.4218 17.8739 13.7968 17.6981 13.1837 17.4609C12.884 17.3807 12.6691 17.2049 12.5392 16.9336C12.4309 14.6244 12.47 12.3198 12.6563 10.0195C13.5207 7.18206 15.4153 5.54143 18.3399 5.09765Z" fill="#746D77"/>
<path fill-rule="evenodd" clip-rule="evenodd" d="M18.3398 5.09766C21.7575 4.96127 25.195 4.94174 28.6523 5.03906C29.9224 5.33308 30.5279 6.13385 30.4688 7.44141C30.8583 8.56549 31.659 9.09284 32.8711 9.02344C33.711 9.23828 34.2383 9.76562 34.4531 10.6055C34.5313 12.6758 34.5313 14.7461 34.4531 16.8164C34.3611 17.0257 34.2245 17.2015 34.043 17.3438C33.3483 17.5949 32.6452 17.8098 31.9336 17.9883C31.9532 16.5814 31.9336 15.1752 31.875 13.7695C31.3138 11.5636 29.888 10.4699 27.5977 10.4883C27.5462 8.47818 26.8822 6.70083 25.6055 5.15625C23.1839 5.09766 20.762 5.07813 18.3398 5.09766Z" fill="#635B63"/>
<path fill-rule="evenodd" clip-rule="evenodd" d="M42.8321 8.4961C47.0901 8.47656 51.3478 8.4961 55.6055 8.55469C55.7031 8.65234 55.8009 8.75001 55.8985 8.84766C56.06 9.37348 55.9233 9.78363 55.4883 10.0781C51.2698 10.1367 47.051 10.1563 42.8321 10.1367C42.689 10.0748 42.5523 9.99668 42.4219 9.90235C42.1007 9.28149 42.2375 8.81274 42.8321 8.4961Z" fill="black"/>
<path fill-rule="evenodd" clip-rule="evenodd" d="M27.7148 12.2462C27.7344 16.1917 27.7148 20.137 27.6563 24.0821C27.6223 24.3657 27.5637 24.6392 27.4805 24.9024C25.6336 25.511 25.0867 26.722 25.8398 28.5352C25.4433 29.2645 24.8964 29.87 24.1992 30.3517C23.5718 30.88 22.8687 31.2512 22.0898 31.4649C18.4595 30.7842 16.0963 28.6748 15 25.1368C14.903 24.672 14.8444 24.2033 14.8242 23.7306C14.8242 22.4415 14.8242 21.1524 14.8242 19.8634C15.0116 19.8948 15.1678 19.8556 15.293 19.7462C15.9398 19.5879 16.389 19.1973 16.6406 18.5743C16.7907 16.9417 16.8689 15.301 16.875 13.6524C17.3204 12.7074 18.0626 12.2387 19.1016 12.2462C19.9898 12.3677 20.8688 12.5435 21.7383 12.7735C22.8711 12.8517 24.0039 12.8517 25.1367 12.7735C25.9966 12.5742 26.8561 12.3984 27.7148 12.2462Z" fill="#FEDCCD"/>
<path fill-rule="evenodd" clip-rule="evenodd" d="M27.7148 12.2461C28.9164 12.2186 29.7171 12.7655 30.1172 13.8867C30.1233 15.5353 30.2014 17.176 30.3516 18.8086C30.7536 19.5077 31.3591 19.8203 32.168 19.7461C32.1875 21.1529 32.168 22.5592 32.1094 23.9649C32.0966 24.4988 31.9794 25.0065 31.7578 25.4883C31.4685 25.2361 31.1365 25.0603 30.7617 24.961C29.6687 24.9024 28.5749 24.8829 27.4805 24.9024C27.5637 24.6392 27.6223 24.3656 27.6562 24.082C27.7148 20.1369 27.7344 16.1916 27.7148 12.2461Z" fill="#FCC8BC"/>
<path fill-rule="evenodd" clip-rule="evenodd" d="M43.6523 13.418C44.7852 13.418 45.9179 13.418 47.0508 13.418C46.1133 14.9804 45.1758 16.543 44.2383 18.1055C44.1601 16.8554 44.0821 15.6055 44.0039 14.3555C43.9523 14.018 43.8352 13.7055 43.6523 13.418Z" fill="#93D3A1"/>
<path fill-rule="evenodd" clip-rule="evenodd" d="M44.0038 14.3555C44.082 15.6055 44.16 16.8554 44.2382 18.1055C44.2312 18.1691 44.1921 18.2081 44.121 18.2227C44.0039 16.9359 43.9649 15.6469 44.0038 14.3555Z" fill="#233226"/>
<path fill-rule="evenodd" clip-rule="evenodd" d="M11.0743 17.9883C11.5454 18.615 12.1704 19.0056 12.9493 19.1602C12.9493 20.293 12.9493 21.4257 12.9493 22.5586C12.479 22.578 12.0102 22.5585 11.5431 22.5C11.1923 22.3642 10.997 22.1104 10.9572 21.7383C10.9187 20.4673 10.9578 19.2172 11.0743 17.9883Z" fill="#99C2F7"/>
<path fill-rule="evenodd" clip-rule="evenodd" d="M35.918 17.7539C36.0538 19.1007 36.0734 20.4679 35.9766 21.8555C35.8846 22.0648 35.7479 22.2405 35.5664 22.3828C35.0313 22.5362 34.4844 22.5948 33.9258 22.5586C33.9258 21.4257 33.9258 20.293 33.9258 19.1602C34.8502 19.0555 35.5143 18.5868 35.918 17.7539Z" fill="#99C1F5"/>
<path fill-rule="evenodd" clip-rule="evenodd" d="M11.0743 17.9883C10.9578 19.2173 10.9187 20.4673 10.9571 21.7383C10.8213 20.4697 10.8018 19.1806 10.8985 17.8712C11.0282 17.7291 11.0868 17.7681 11.0743 17.9883Z" fill="#6D8AB0"/>
<path fill-rule="evenodd" clip-rule="evenodd" d="M15.2929 19.7461C15.1677 19.8555 15.0115 19.8947 14.8241 19.8633C14.8241 21.1523 14.8241 22.4414 14.8241 23.7305C14.7075 22.4234 14.6685 21.0952 14.7069 19.7461C14.9023 19.7461 15.0975 19.7461 15.2929 19.7461Z" fill="#97837A"/>
<path fill-rule="evenodd" clip-rule="evenodd" d="M27.4805 26.6601C28.4578 26.6407 29.4343 26.6601 30.4101 26.7187C30.8866 27.1576 30.8476 27.5482 30.293 27.8906C29.4336 27.9688 28.5742 27.9688 27.7148 27.8906C27.2001 27.5694 27.1221 27.1592 27.4805 26.6601Z" fill="#D15E69"/>
<path fill-rule="evenodd" clip-rule="evenodd" d="M25.8398 28.5352C26.6188 29.4796 27.6343 29.8897 28.8867 29.7656C26.8404 31.2625 24.5747 31.8289 22.0898 31.4648C22.8687 31.2511 23.5718 30.88 24.1992 30.3516C24.8964 29.8699 25.4433 29.2644 25.8398 28.5352Z" fill="#FAC7BA"/>
<path fill-rule="evenodd" clip-rule="evenodd" d="M19.3945 32.6367C22.0884 33.5702 24.7838 33.5702 27.4805 32.6367C27.4236 33.5925 27.5018 34.53 27.7148 35.4492C24.863 35.4688 22.0114 35.4492 19.1602 35.3906C19.2454 35.2267 19.3039 35.0509 19.3359 34.8633C19.3945 34.1221 19.414 33.3799 19.3945 32.6367Z" fill="#FBD9CA"/>
<path fill-rule="evenodd" clip-rule="evenodd" d="M6.85547 37.3242C15.918 37.3047 24.9805 37.3242 34.043 37.3828C34.4629 37.959 34.6582 38.6036 34.6289 39.3164C34.3184 44.3148 34.045 49.3147 33.8086 54.3164C31.4648 54.3164 29.1211 54.3164 26.7773 54.3164C27.0473 53.034 27.6529 51.9403 28.5938 51.0352C30.0667 48.6483 30.0667 46.2655 28.5938 43.8867C27.9261 42.8611 27.0082 42.197 25.8398 41.8945C25.2596 41.9076 24.8495 42.1811 24.6094 42.7149C24.5888 44.3057 24.5302 45.8877 24.4336 47.461C23.7792 47.5554 23.1347 47.5358 22.5 47.4024C22.461 45.8789 22.4218 44.3555 22.3828 42.832C22.0206 42.0553 21.4152 41.7624 20.5664 41.9531C18.0036 43.466 16.9294 45.712 17.3438 48.6914C17.6344 50.0154 18.2593 51.1483 19.2188 52.0899C19.7091 52.7575 20.002 53.4996 20.0977 54.3164C15.5273 54.3164 10.957 54.3164 6.38672 54.3164C6.34484 53.3783 6.28624 52.4408 6.21094 51.5039C5.97714 51.1319 5.6451 50.9365 5.21484 50.918C5.21484 50.1367 5.21484 49.3555 5.21484 48.5742C5.84781 48.4253 6.12124 48.0151 6.03516 47.3438C5.82257 44.3963 5.68584 41.447 5.625 38.4961C5.86518 37.9239 6.27533 37.5332 6.85547 37.3242Z" fill="#E9F1FE"/>
<path fill-rule="evenodd" clip-rule="evenodd" d="M6.85547 37.3241C17.8905 37.1875 28.9452 37.168 40.0195 37.2655C40.9671 37.617 41.4359 38.3007 41.4258 39.3163C41.0746 44.351 40.8012 49.3901 40.6055 54.4335C35.9761 54.4724 31.3668 54.4334 26.7773 54.3163C29.1211 54.3163 31.4648 54.3163 33.8086 54.3163C34.045 49.3146 34.3184 44.3147 34.6289 39.3163C34.6582 38.6035 34.4628 37.9589 34.043 37.3827C24.9805 37.3241 15.918 37.3046 6.85547 37.3241Z" fill="#D7E4F4"/>
<path fill-rule="evenodd" clip-rule="evenodd" d="M20.5664 44.0039C20.6637 45.2334 20.7223 46.4835 20.7422 47.7539C20.9962 48.4766 21.4844 48.9648 22.2071 49.2188C23.0274 49.2969 23.8477 49.2969 24.668 49.2188C25.5079 49.0039 26.0352 48.4766 26.25 47.6367C26.2891 46.4258 26.3282 45.2148 26.3672 44.0039C28.1509 45.7819 28.4243 47.7741 27.1875 49.9805C25.9652 51.1752 25.2425 52.6206 25.0196 54.3164C23.9649 54.3164 22.9102 54.3164 21.8555 54.3164C21.7923 53.2516 21.4602 52.275 20.8594 51.3867C20.3907 50.7618 19.9219 50.1367 19.4532 49.5117C18.5965 47.4109 18.9677 45.575 20.5664 44.0039Z" fill="#7DAFF5"/>
<path fill-rule="evenodd" clip-rule="evenodd" d="M42.9492 45.4102C43.8591 47.1742 44.3668 49.0492 44.4727 51.0352C44.4727 52.1289 44.4727 53.2227 44.4727 54.3164C43.7695 54.3164 43.0664 54.3164 42.3633 54.3164C42.3633 54.1211 42.3633 53.9258 42.3633 53.7305C42.5108 51.193 42.628 48.6539 42.7148 46.1133C42.793 45.8789 42.8711 45.6445 42.9492 45.4102Z" fill="#FBCC62"/>
<path fill-rule="evenodd" clip-rule="evenodd" d="M5.21483 48.5742C5.21483 49.3555 5.21483 50.1367 5.21483 50.918C4.95296 51.0033 4.73812 51.1595 4.5703 51.3867C4.51184 51.8538 4.49231 52.3226 4.5117 52.793C4.5117 53.3007 4.5117 53.8086 4.5117 54.3164C3.80858 54.3164 3.10545 54.3164 2.40233 54.3164C2.04068 51.1216 2.60709 48.1139 4.10155 45.293C4.12784 46.2355 4.20597 47.173 4.33592 48.1055C4.51625 48.4595 4.80922 48.6157 5.21483 48.5742Z" fill="#FACC62"/>
<path fill-rule="evenodd" clip-rule="evenodd" d="M42.9493 45.4102C42.8711 45.6445 42.7931 45.8789 42.7149 46.1133C42.6788 45.8292 42.7179 45.5558 42.8321 45.293C42.9032 45.3075 42.9422 45.3465 42.9493 45.4102Z" fill="#6A5729"/>
<path fill-rule="evenodd" clip-rule="evenodd" d="M4.51172 52.793C4.62728 53.3168 4.66635 53.8637 4.62891 54.4336C3.8646 54.4714 3.12241 54.4324 2.40234 54.3164C3.10547 54.3164 3.80859 54.3164 4.51172 54.3164C4.51172 53.8086 4.51172 53.3007 4.51172 52.793Z" fill="#7A6330"/>
<path fill-rule="evenodd" clip-rule="evenodd" d="M44.4726 51.0352C44.5891 52.1468 44.6281 53.2795 44.5898 54.4336C43.8085 54.4336 43.0273 54.4336 42.246 54.4336C42.2115 54.1717 42.2506 53.9373 42.3632 53.7305C42.3632 53.9258 42.3632 54.1211 42.3632 54.3164C43.0664 54.3164 43.7695 54.3164 44.4726 54.3164C44.4726 53.2227 44.4726 52.1289 44.4726 51.0352Z" fill="#6A572A"/>
<path fill-rule="evenodd" clip-rule="evenodd" d="M2.40229 56.1914C14.3944 56.1914 26.3867 56.1914 38.3789 56.1914C38.4325 56.8202 38.3544 57.4257 38.1445 58.0078C26.2305 58.0664 14.3164 58.086 2.40229 58.0664C1.71026 57.7515 1.53448 57.2438 1.87495 56.543C2.00725 56.3507 2.18303 56.2335 2.40229 56.1914Z" fill="#9AC3F8"/>
<path fill-rule="evenodd" clip-rule="evenodd" d="M2.40234 56.1914C16.4061 56.0547 30.4296 56.0352 44.4727 56.1328C45.1276 56.42 45.3424 56.9082 45.1172 57.5976C44.9734 57.8585 44.7585 58.0343 44.4727 58.125C30.4296 58.2226 16.4061 58.203 2.40234 58.0664C14.3164 58.0859 26.2305 58.0664 38.1445 58.0078C38.3544 57.4257 38.4326 56.8202 38.3789 56.1914C26.3868 56.1914 14.3945 56.1914 2.40234 56.1914Z" fill="#719AD3"/>
</g>
<defs>
<clipPath id="clip0_671_315">
<rect width="60" height="60" fill="white"/>
</clipPath>
</defs>
</svg>
