<svg width="1530" height="535" viewBox="0 0 1530 535" fill="none" xmlns="http://www.w3.org/2000/svg">
<rect width="1524" height="531" fill="white"/>
<path d="M0 2H1530V210.708V261.35V312.504V534H0V311.992L0 262.373L0 210.708V2Z" fill="url(#paint0_linear_14_2)" fill-opacity="0.16"/>
<line x1="63.5801" y1="3" x2="63.5801" y2="534" stroke="#01693A" stroke-opacity="0.03"/>
<line x1="124.66" y1="3" x2="124.66" y2="534" stroke="#01693A" stroke-opacity="0.03"/>
<line x1="185.74" y1="3" x2="185.74" y2="534" stroke="#01693A" stroke-opacity="0.03"/>
<line x1="246.82" y1="3" x2="246.82" y2="534" stroke="#01693A" stroke-opacity="0.03"/>
<line x1="307.9" y1="3" x2="307.9" y2="534" stroke="#01693A" stroke-opacity="0.03"/>
<line x1="368.98" y1="3" x2="368.98" y2="534" stroke="#01693A" stroke-opacity="0.03"/>
<line x1="430.06" y1="3" x2="430.06" y2="534" stroke="#01693A" stroke-opacity="0.03"/>
<line x1="491.14" y1="3" x2="491.14" y2="534" stroke="#01693A" stroke-opacity="0.03"/>
<line x1="552.22" y1="3" x2="552.22" y2="534" stroke="#01693A" stroke-opacity="0.03"/>
<line x1="613.3" y1="3" x2="613.3" y2="534" stroke="#01693A" stroke-opacity="0.03"/>
<line x1="674.38" y1="3" x2="674.38" y2="534" stroke="#01693A" stroke-opacity="0.03"/>
<line x1="735.46" y1="3" x2="735.46" y2="534" stroke="#01693A" stroke-opacity="0.03"/>
<line x1="796.54" y1="3" x2="796.54" y2="534" stroke="#01693A" stroke-opacity="0.03"/>
<line x1="857.62" y1="3" x2="857.62" y2="534" stroke="#01693A" stroke-opacity="0.03"/>
<line x1="918.7" y1="3" x2="918.7" y2="534" stroke="#01693A" stroke-opacity="0.03"/>
<line x1="979.78" y1="3" x2="979.78" y2="534" stroke="#01693A" stroke-opacity="0.03"/>
<line x1="1040.86" y1="3" x2="1040.86" y2="534" stroke="#01693A" stroke-opacity="0.03"/>
<line x1="1101.94" y1="3" x2="1101.94" y2="534" stroke="#01693A" stroke-opacity="0.03"/>
<line x1="1163.02" y1="3" x2="1163.02" y2="534" stroke="#01693A" stroke-opacity="0.03"/>
<line x1="1224.1" y1="3" x2="1224.1" y2="534" stroke="#01693A" stroke-opacity="0.03"/>
<line x1="1285.18" y1="3" x2="1285.18" y2="534" stroke="#01693A" stroke-opacity="0.03"/>
<line x1="1346.26" y1="3" x2="1346.26" y2="534" stroke="#01693A" stroke-opacity="0.03"/>
<line x1="1407.34" y1="3" x2="1407.34" y2="534" stroke="#01693A" stroke-opacity="0.03"/>
<line x1="1468.42" y1="3" x2="1468.42" y2="534" stroke="#01693A" stroke-opacity="0.03"/>
<path d="M2.50003 3L28.5 268.5L2.50001 534" stroke="#01693A" stroke-opacity="0.03"/>
<line x1="1525.03" y1="3.5" x2="2" y2="3.49991" stroke="#01693A" stroke-opacity="0.03"/>
<line x1="1525.03" y1="38.8999" x2="1.99988" y2="38.8998" stroke="#01693A" stroke-opacity="0.03"/>
<line x1="1525.03" y1="74.2998" x2="1.99988" y2="74.2997" stroke="#01693A" stroke-opacity="0.03"/>
<line x1="1525.03" y1="109.7" x2="1.99988" y2="109.7" stroke="#01693A" stroke-opacity="0.03"/>
<line x1="1525.03" y1="145.1" x2="1.99988" y2="145.1" stroke="#01693A" stroke-opacity="0.03"/>
<line x1="1525.03" y1="180.5" x2="1.99988" y2="180.5" stroke="#01693A" stroke-opacity="0.03"/>
<line x1="1525.03" y1="215.9" x2="1.99988" y2="215.9" stroke="#01693A" stroke-opacity="0.03"/>
<line x1="1502" y1="251.5" x2="28" y2="251.5" stroke="#01693A" stroke-opacity="0.03"/>
<line x1="1511" y1="286.5" x2="19" y2="286.5" stroke="#01693A" stroke-opacity="0.03"/>
<line x1="1525.03" y1="322.1" x2="1.99988" y2="322.1" stroke="#01693A" stroke-opacity="0.03"/>
<line x1="1525.03" y1="357.5" x2="1.99988" y2="357.5" stroke="#01693A" stroke-opacity="0.03"/>
<line x1="1525.03" y1="392.9" x2="1.99988" y2="392.9" stroke="#01693A" stroke-opacity="0.03"/>
<line x1="1525.03" y1="428.3" x2="1.99988" y2="428.3" stroke="#01693A" stroke-opacity="0.03"/>
<line x1="1525.03" y1="463.7" x2="1.99988" y2="463.7" stroke="#01693A" stroke-opacity="0.03"/>
<line x1="1525.03" y1="499.1" x2="1.99988" y2="499.1" stroke="#01693A" stroke-opacity="0.03"/>
<line x1="1525.03" y1="534.5" x2="1.99988" y2="534.5" stroke="#01693A" stroke-opacity="0.03"/>
<path d="M1529.5 3L1529.5 268.5L1529.5 534" stroke="#01693A" stroke-opacity="0.03"/>
<defs>
<linearGradient id="paint0_linear_14_2" x1="25.5" y1="268" x2="1499" y2="268" gradientUnits="userSpaceOnUse">
<stop stop-color="#01693A"/>
<stop offset="1" stop-color="#FF8A00"/>
</linearGradient>
</defs>
</svg>
