<svg width="328" height="328" viewBox="0 0 328 328" fill="none" xmlns="http://www.w3.org/2000/svg">
<g clip-path="url(#clip0_1_1585)">
<path opacity="0.992" fill-rule="evenodd" clip-rule="evenodd" d="M109.384 140.944C123.026 152.579 137.301 163.343 152.21 173.238C132.834 171.589 113.525 172.039 94.2834 174.588C82.7775 171.793 71.8641 167.582 61.5428 161.956C47.6291 154.522 34.4074 145.919 21.8778 136.147C44.3917 131.156 66.9793 130.847 89.6404 135.22C96.2228 136.859 102.641 138.98 108.894 141.585C109.228 141.469 109.391 141.256 109.384 140.944Z" fill="#9FBB32"/>
<path fill-rule="evenodd" clip-rule="evenodd" d="M62.6569 183.382C71.4809 186.584 80.6122 188.921 90.0502 190.394C119.454 194.827 148.65 193.737 177.638 187.126C185.682 190.527 193.933 193.461 202.392 195.926C202.463 196.756 202.752 197.485 203.257 198.113C191.027 201.561 178.764 204.529 166.467 207.016C153.645 208.969 140.755 210.102 127.798 210.416C113.403 209.987 99.0325 208.632 84.6864 206.35C69.7659 203.367 55.4988 198.45 41.8849 191.601C48.512 188.185 55.436 185.445 62.6569 183.382Z" fill="#707F13"/>
<path opacity="0.991" fill-rule="evenodd" clip-rule="evenodd" d="M84.6864 206.351C99.0325 208.632 113.403 209.988 127.798 210.416C120.527 212.857 113.917 216.514 107.966 221.387C100.591 227.478 93.5893 233.968 86.9589 240.855C86.3142 241.396 85.5981 241.778 84.8098 242.003C80.465 242.066 76.1817 241.579 71.9595 240.542C63.612 237.577 55.4867 234.148 47.5837 230.254C56.2196 221.628 66.0112 214.481 76.9586 208.813C79.4606 207.742 82.0368 206.921 84.6864 206.351Z" fill="#9EBB32"/>
<path fill-rule="evenodd" clip-rule="evenodd" d="M80.321 247.2C114.402 242.197 144.638 228.697 171.028 206.7C169.495 206.617 167.974 206.722 166.467 207.017C178.764 204.529 191.027 201.561 203.257 198.113C203.634 198.063 203.847 198.226 203.897 198.603C203.997 199.357 203.67 199.784 202.917 199.884C191.583 208.179 180.672 217.008 170.184 226.372C153.585 239.507 135.35 249.499 115.476 256.348C98.4645 262.145 80.9119 265.719 62.8189 267.067C68.1763 259.961 74.0104 253.338 80.321 247.2Z" fill="#89A835"/>
<path fill-rule="evenodd" clip-rule="evenodd" d="M65.938 82.2698C65.6355 82.3444 65.4722 82.5576 65.4475 82.9101C91.3588 111.991 120.773 137.145 153.691 158.371C166.159 165.73 179.244 171.857 192.947 176.755C197.377 181.854 201.179 187.39 204.354 193.365C203.486 194.055 202.832 194.909 202.392 195.926C193.933 193.461 185.682 190.528 177.638 187.126C169.102 182.652 160.626 178.022 152.21 173.238C137.301 163.343 123.026 152.579 109.384 140.945C89.8842 124.291 71.8525 106.162 55.288 86.558C51.7299 82.1395 48.1719 77.7211 44.6138 73.3027C45.5862 72.8746 46.5535 72.938 47.5156 73.4933C53.7727 76.2739 59.9135 79.1994 65.938 82.2698Z" fill="#89A835"/>
<path opacity="0.997" fill-rule="evenodd" clip-rule="evenodd" d="M62.657 183.382C72.8708 180.088 83.2617 177.464 93.8304 175.511C94.1161 175.252 94.2669 174.945 94.2834 174.588C113.525 172.039 132.834 171.589 152.21 173.238C160.626 178.022 169.102 182.652 177.638 187.126C148.65 193.737 119.454 194.827 90.0503 190.394C80.6122 188.921 71.481 186.584 62.657 183.382Z" fill="#89A417"/>
<path opacity="0.999" fill-rule="evenodd" clip-rule="evenodd" d="M80.321 247.2C81.8172 245.468 83.3136 243.735 84.8098 242.003C85.5981 241.778 86.3142 241.395 86.9589 240.855C93.5893 233.968 100.591 227.478 107.966 221.387C113.917 216.514 120.527 212.857 127.798 210.416C140.755 210.102 153.645 208.969 166.467 207.016C167.974 206.722 169.495 206.617 171.028 206.699C144.638 228.696 114.402 242.197 80.321 247.2Z" fill="#A0CD3D"/>
<path opacity="0.996" fill-rule="evenodd" clip-rule="evenodd" d="M65.938 82.2697C87.814 92.6007 108.771 104.589 128.811 118.234C136.37 123.769 143.934 129.477 151.504 135.361C157.794 140.856 164.083 146.351 170.373 151.845C167.913 144.745 165.525 137.583 163.21 130.358C160.312 118.285 157.935 106.136 156.077 93.9088C155.977 83.4471 156.016 72.8948 156.196 62.2516C156.437 54.4098 157.229 46.6344 158.569 38.9249C168.61 50.108 176.954 62.4259 183.603 75.8777C189.648 89.8979 194.8 104.173 199.059 118.702C204.487 140.646 207.152 162.922 207.054 185.528C207.201 188.205 206.866 190.742 206.05 193.14C205.484 193.215 204.919 193.29 204.354 193.365C201.179 187.39 197.377 181.854 192.947 176.755C179.244 171.857 166.159 165.729 153.691 158.371C120.773 137.145 91.3588 111.991 65.4475 82.91C65.4722 82.5575 65.6355 82.3443 65.938 82.2697Z" fill="#A0CD3D"/>
<path opacity="0.991" fill-rule="evenodd" clip-rule="evenodd" d="M115.476 256.348C135.35 249.499 153.585 239.507 170.184 226.372C180.672 217.008 191.583 208.179 202.917 199.884C200.947 201.733 199.098 203.704 197.372 205.797C179.059 220.523 163.625 237.91 151.071 257.958C147.908 264.268 145.221 270.76 143.01 277.436C130.4 286.561 116.946 294.289 102.647 300.62C102.34 300.47 102.032 300.319 101.724 300.168C104.139 289.998 106.728 279.875 109.493 269.798C111.351 264.936 113.924 260.472 117.21 256.406C116.638 256.204 116.06 256.185 115.476 256.348Z" fill="#9EBB32"/>
<path opacity="0.995" fill-rule="evenodd" clip-rule="evenodd" d="M100.568 39.7096C100.158 37.9965 100.122 36.2754 100.458 34.5463C117.789 47.7299 133.298 62.7416 146.987 79.5807C150.317 84.1916 153.346 88.9677 156.077 93.9088C157.935 106.136 160.312 118.285 163.21 130.358C154.895 123.904 146.64 117.327 138.445 110.628C117.807 91.2675 105.181 67.6278 100.568 39.7096Z" fill="#89A416"/>
<path fill-rule="evenodd" clip-rule="evenodd" d="M100.568 39.7096C105.181 67.6278 117.807 91.2675 138.445 110.628C146.64 117.327 154.895 123.904 163.21 130.358C165.525 137.583 167.913 144.745 170.373 151.845C164.083 146.351 157.794 140.856 151.504 135.361C143.934 129.477 136.37 123.769 128.811 118.234C116.092 101.382 107.746 82.5448 103.773 61.7214C102.249 54.4209 101.18 47.0837 100.568 39.7096Z" fill="#708013"/>
<path fill-rule="evenodd" clip-rule="evenodd" d="M141.797 285.651C159.797 274.542 174.262 259.968 185.19 241.929C191.015 230.506 195.075 218.462 197.372 205.797C199.098 203.704 200.947 201.734 202.916 199.884C203.67 199.784 203.997 199.357 203.897 198.603C204.915 199.044 205.768 199.698 206.459 200.565C204.768 203.913 203.71 207.505 203.285 211.341C202.836 211.597 202.698 211.999 202.869 212.547C202.894 212.735 202.919 212.924 202.944 213.112C202.496 213.368 202.357 213.77 202.529 214.318C199.686 225.968 196.329 237.536 192.458 249.02C185.917 265.077 175.913 278.58 162.447 289.53C155.287 295.407 147.746 300.721 139.822 305.473C140.259 298.83 140.916 292.223 141.797 285.651Z" fill="#708013"/>
<path opacity="0.998" fill-rule="evenodd" clip-rule="evenodd" d="M141.797 285.651C142.082 282.895 142.487 280.157 143.01 277.436C145.221 270.76 147.908 264.268 151.071 257.958C163.625 237.91 179.059 220.523 197.372 205.796C195.075 218.462 191.015 230.506 185.19 241.929C174.262 259.968 159.798 274.542 141.797 285.651Z" fill="#89A417"/>
<path opacity="0.985" fill-rule="evenodd" clip-rule="evenodd" d="M202.529 214.318C202.977 214.062 203.116 213.66 202.944 213.112C202.919 212.924 202.894 212.735 202.869 212.547C203.317 212.29 203.456 211.889 203.285 211.341C203.71 207.504 204.768 203.912 206.459 200.565C211.102 203.613 215.396 207.071 219.34 210.939C228.642 232.306 230.905 254.443 226.129 277.349C225.745 279.256 224.909 280.901 223.619 282.284C209.387 261.846 202.357 239.19 202.529 214.318Z" fill="#A1CD3D"/>
<path opacity="0.99" fill-rule="evenodd" clip-rule="evenodd" d="M183.603 75.8779C184.151 68.0956 185.935 60.5718 188.953 53.3073C191.531 46.9669 194.457 40.8261 197.729 34.8849C203.455 41.2086 208.669 47.9963 213.373 55.2481C215.419 59.2911 217.03 63.4884 218.206 67.8394C212.805 77.8878 207.741 88.1476 203.013 98.6183C200.17 105.033 198.852 111.728 199.059 118.703C194.8 104.173 189.648 89.8981 183.603 75.8779Z" fill="#9FBB32"/>
<path opacity="0.963" fill-rule="evenodd" clip-rule="evenodd" d="M202.392 195.926C202.832 194.909 203.486 194.056 204.354 193.365C204.919 193.29 205.484 193.215 206.05 193.14C206.564 193.591 207.179 193.893 207.896 194.046C208.373 194.75 209.013 195.24 209.817 195.518C214.182 199.37 218.853 202.778 223.828 205.742C246.895 223.663 270.065 241.494 293.339 259.236C294.613 263.097 293.198 264.723 289.096 264.113C265.903 246.264 242.651 228.54 219.34 210.939C215.396 207.071 211.102 203.613 206.459 200.565C205.768 199.698 204.915 199.044 203.897 198.603C203.847 198.226 203.634 198.063 203.257 198.113C202.752 197.485 202.463 196.756 202.392 195.926Z" fill="#7E3D31"/>
<path opacity="0.995" fill-rule="evenodd" clip-rule="evenodd" d="M206.05 193.14C206.866 190.742 207.201 188.205 207.054 185.528C207.152 162.922 204.487 140.646 199.059 118.702C198.852 111.728 200.17 105.033 203.013 98.6181C207.741 88.1475 212.805 77.8877 218.206 67.8392C223.987 58.4054 230.144 49.152 236.675 40.0779C240.034 58.5744 241.257 77.2057 240.344 95.971C238.75 113.925 234.635 131.346 227.999 148.234C223.535 158.319 218.917 168.328 214.145 178.26C212.181 182.394 210.539 186.639 209.217 190.995C209.035 192.118 208.595 193.135 207.896 194.046C207.179 193.893 206.564 193.59 206.05 193.14Z" fill="#8AA517"/>
<path opacity="0.992" fill-rule="evenodd" clip-rule="evenodd" d="M207.896 194.046C208.595 193.135 209.035 192.118 209.217 190.994C215.179 179.196 221.601 167.607 228.483 156.224C236.025 143.722 245.198 132.629 256.002 122.948C260.153 119.829 264.364 116.873 268.634 114.083C276.917 110.583 285.312 107.361 293.816 104.416C288.287 125.822 278.135 144.714 263.359 161.093C259.563 164.282 255.766 167.469 251.97 170.657C242.242 177.149 232.301 183.165 222.146 188.705C221.572 188.683 221.22 188.921 221.09 189.421C220.713 189.471 220.336 189.521 219.959 189.571C219.582 189.621 219.419 189.834 219.469 190.211C215.98 191.575 212.762 193.343 209.817 195.517C209.013 195.24 208.373 194.75 207.896 194.046Z" fill="#A1CE3D"/>
<path opacity="0.983" fill-rule="evenodd" clip-rule="evenodd" d="M209.817 195.518C212.762 193.344 215.98 191.575 219.469 190.211C219.419 189.834 219.582 189.621 219.959 189.571C220.336 189.521 220.713 189.471 221.09 189.421C221.664 189.444 222.015 189.205 222.146 188.706C241.955 182.95 261.867 182.708 281.881 187.979C285.776 188.818 289.568 189.945 293.26 191.361C290.878 194.206 287.887 196.233 284.285 197.44C270.005 203.577 255.103 206.895 239.58 207.393C234.258 207.399 229.007 206.848 223.828 205.742C218.853 202.778 214.182 199.37 209.817 195.518Z" fill="#8AA417"/>
<path opacity="0.99" fill-rule="evenodd" clip-rule="evenodd" d="M209.217 190.995C210.539 186.639 212.181 182.394 214.145 178.26C218.917 168.328 223.535 158.319 227.999 148.234C234.635 131.346 238.75 113.925 240.344 95.9711C242.994 92.4299 246.024 89.2478 249.434 86.4243C259.189 80.2321 269.155 74.4047 279.334 68.9415C278.121 84.4657 274.554 99.5126 268.634 114.083C264.364 116.873 260.153 119.829 256.002 122.948C245.198 132.63 236.025 143.722 228.483 156.224C221.601 167.607 215.179 179.197 209.217 190.995Z" fill="#9EBB32"/>
</g>
<defs>
<clipPath id="clip0_1_1585">
<rect width="292" height="292" fill="white" transform="translate(38.3697 327.838) rotate(-97.5507)"/>
</clipPath>
</defs>
</svg>
